<svg id="svg" version="1.1" xmlns="http://www.w3.org/2000/svg" xmlns:xlink="http://www.w3.org/1999/xlink" width="400" height="400" viewBox="0, 0, 400,400"><g id="svgg"><path id="path0" d="M74.800 49.613 C 74.800 50.062,74.510 50.871,74.154 51.413 C 73.786 51.975,73.582 52.896,73.679 53.558 C 73.807 54.430,73.711 54.664,73.290 54.502 C 72.919 54.360,72.758 54.543,72.811 55.044 C 72.955 56.389,72.812 56.800,72.200 56.800 C 71.767 56.800,71.600 57.244,71.600 58.400 C 71.600 59.556,71.433 60.000,71.000 60.000 C 70.605 60.000,70.400 60.395,70.400 61.157 C 70.400 61.842,70.142 62.413,69.770 62.556 C 69.347 62.718,69.181 63.189,69.264 63.986 C 69.345 64.754,69.146 65.355,68.703 65.687 C 68.326 65.969,67.976 66.773,67.925 67.472 C 67.875 68.172,67.710 68.668,67.559 68.575 C 67.201 68.353,66.800 69.417,66.800 70.590 C 66.800 71.098,66.530 71.618,66.200 71.745 C 65.870 71.871,65.600 72.431,65.600 72.987 C 65.600 73.544,65.420 74.000,65.200 74.000 C 64.980 74.000,64.800 74.720,64.800 75.600 C 64.800 76.756,64.633 77.200,64.200 77.200 C 63.805 77.200,63.600 77.595,63.600 78.357 C 63.600 79.017,63.342 79.613,63.000 79.745 C 62.623 79.889,62.400 80.501,62.400 81.387 C 62.400 82.376,62.220 82.800,61.800 82.800 C 61.422 82.800,61.200 83.181,61.200 83.829 C 61.200 84.394,60.914 85.143,60.564 85.493 C 60.154 85.903,59.983 86.605,60.083 87.465 C 60.209 88.541,60.100 88.800,59.520 88.800 C 59.063 88.800,58.800 89.097,58.800 89.614 C 58.800 90.062,58.510 90.871,58.154 91.413 C 57.786 91.975,57.582 92.896,57.679 93.558 C 57.807 94.430,57.711 94.664,57.290 94.502 C 56.919 94.360,56.758 94.543,56.811 95.044 C 56.955 96.389,56.812 96.800,56.200 96.800 C 55.668 96.800,55.600 109.111,55.600 205.200 L 55.600 313.600 93.200 313.600 L 130.800 313.600 130.800 334.200 L 130.800 354.800 150.800 354.800 C 168.311 354.800,170.800 354.725,170.800 354.200 C 170.800 353.870,171.070 353.600,171.400 353.600 C 171.730 353.600,172.000 353.330,172.000 353.000 C 172.000 352.670,172.270 352.400,172.600 352.400 C 172.930 352.400,173.200 352.220,173.200 352.000 C 173.200 351.780,173.470 351.600,173.800 351.600 C 174.130 351.600,174.400 351.330,174.400 351.000 C 174.400 350.670,174.670 350.400,175.000 350.400 C 175.330 350.400,175.600 350.130,175.600 349.800 C 175.600 349.470,175.780 349.200,176.000 349.200 C 176.220 349.200,176.400 348.930,176.400 348.600 C 176.400 348.270,176.670 348.000,177.000 348.000 C 177.330 348.000,177.600 347.730,177.600 347.400 C 177.600 347.070,177.870 346.800,178.200 346.800 C 178.530 346.800,178.800 346.530,178.800 346.200 C 178.800 345.870,179.070 345.600,179.400 345.600 C 179.730 345.600,180.000 345.330,180.000 345.000 C 180.000 344.670,180.270 344.400,180.600 344.400 C 180.930 344.400,181.200 344.220,181.200 344.000 C 181.200 343.780,181.470 343.600,181.800 343.600 C 182.130 343.600,182.400 343.330,182.400 343.000 C 182.400 342.670,182.670 342.400,183.000 342.400 C 183.330 342.400,183.600 342.130,183.600 341.800 C 183.600 341.470,183.780 341.200,184.000 341.200 C 184.220 341.200,184.400 340.930,184.400 340.600 C 184.400 340.270,184.670 340.000,185.000 340.000 C 185.330 340.000,185.600 339.730,185.600 339.400 C 185.600 339.070,185.870 338.800,186.200 338.800 C 186.530 338.800,186.800 338.530,186.800 338.200 C 186.800 337.870,187.070 337.600,187.400 337.600 C 187.730 337.600,188.000 337.330,188.000 337.000 C 188.000 336.670,188.270 336.400,188.600 336.400 C 188.930 336.400,189.200 336.220,189.200 336.000 C 189.200 335.780,189.470 335.600,189.800 335.600 C 190.130 335.600,190.400 335.330,190.400 335.000 C 190.400 334.670,190.670 334.400,191.000 334.400 C 191.330 334.400,191.600 334.130,191.600 333.800 C 191.600 333.470,191.780 333.200,192.000 333.200 C 192.220 333.200,192.400 332.930,192.400 332.600 C 192.400 332.270,192.670 332.000,193.000 332.000 C 193.330 332.000,193.600 331.730,193.600 331.400 C 193.600 331.070,193.870 330.800,194.200 330.800 C 194.530 330.800,194.800 330.530,194.800 330.200 C 194.800 329.870,195.070 329.600,195.400 329.600 C 195.730 329.600,196.000 329.330,196.000 329.000 C 196.000 328.670,196.270 328.400,196.600 328.400 C 196.930 328.400,197.200 328.220,197.200 328.000 C 197.200 327.780,197.470 327.600,197.800 327.600 C 198.130 327.600,198.400 327.330,198.400 327.000 C 198.400 326.670,198.670 326.400,199.000 326.400 C 199.330 326.400,199.600 326.130,199.600 325.800 C 199.600 325.470,199.780 325.200,200.000 325.200 C 200.220 325.200,200.400 324.930,200.400 324.600 C 200.400 324.270,200.670 324.000,201.000 324.000 C 201.330 324.000,201.600 323.730,201.600 323.400 C 201.600 323.070,201.870 322.800,202.200 322.800 C 202.530 322.800,202.800 322.530,202.800 322.200 C 202.800 321.870,203.070 321.600,203.400 321.600 C 203.730 321.600,204.000 321.330,204.000 321.000 C 204.000 320.670,204.270 320.400,204.600 320.400 C 204.930 320.400,205.200 320.220,205.200 320.000 C 205.200 319.780,205.470 319.600,205.800 319.600 C 206.130 319.600,206.400 319.330,206.400 319.000 C 206.400 318.670,206.670 318.400,207.000 318.400 C 207.330 318.400,207.600 318.130,207.600 317.800 C 207.600 317.470,207.780 317.200,208.000 317.200 C 208.220 317.200,208.400 316.930,208.400 316.600 C 208.400 316.270,208.670 316.000,209.000 316.000 C 209.330 316.000,209.600 315.730,209.600 315.400 C 209.600 315.070,209.870 314.800,210.200 314.800 C 210.530 314.800,210.800 314.530,210.800 314.200 C 210.800 313.672,214.378 313.600,240.600 313.600 C 266.822 313.600,270.400 313.528,270.400 313.000 C 270.400 312.670,270.593 312.400,270.829 312.400 C 271.382 312.400,272.400 311.382,272.400 310.829 C 272.400 310.593,272.670 310.400,273.000 310.400 C 273.330 310.400,273.600 310.130,273.600 309.800 C 273.600 309.470,273.870 309.200,274.200 309.200 C 274.530 309.200,274.800 308.930,274.800 308.600 C 274.800 308.270,275.070 308.000,275.400 308.000 C 275.730 308.000,276.000 307.730,276.000 307.400 C 276.000 307.070,276.270 306.800,276.600 306.800 C 276.930 306.800,277.200 306.530,277.200 306.200 C 277.200 305.870,277.470 305.600,277.800 305.600 C 278.130 305.600,278.400 305.330,278.400 305.000 C 278.400 304.670,278.593 304.400,278.829 304.400 C 279.382 304.400,280.400 303.382,280.400 302.829 C 280.400 302.593,280.670 302.400,281.000 302.400 C 281.330 302.400,281.600 302.130,281.600 301.800 C 281.600 301.470,281.870 301.200,282.200 301.200 C 282.530 301.200,282.800 300.930,282.800 300.600 C 282.800 300.270,283.070 300.000,283.400 300.000 C 283.730 300.000,284.000 299.730,284.000 299.400 C 284.000 299.070,284.270 298.800,284.600 298.800 C 284.930 298.800,285.200 298.530,285.200 298.200 C 285.200 297.870,285.470 297.600,285.800 297.600 C 286.130 297.600,286.400 297.330,286.400 297.000 C 286.400 296.670,286.593 296.400,286.829 296.400 C 287.382 296.400,288.400 295.382,288.400 294.829 C 288.400 294.593,288.670 294.400,289.000 294.400 C 289.330 294.400,289.600 294.130,289.600 293.800 C 289.600 293.470,289.870 293.200,290.200 293.200 C 290.530 293.200,290.800 292.930,290.800 292.600 C 290.800 292.270,291.070 292.000,291.400 292.000 C 291.730 292.000,292.000 291.730,292.000 291.400 C 292.000 291.070,292.270 290.800,292.600 290.800 C 292.930 290.800,293.200 290.530,293.200 290.200 C 293.200 289.870,293.470 289.600,293.800 289.600 C 294.130 289.600,294.400 289.330,294.400 289.000 C 294.400 288.670,294.593 288.400,294.829 288.400 C 295.382 288.400,296.400 287.382,296.400 286.829 C 296.400 286.593,296.670 286.400,297.000 286.400 C 297.330 286.400,297.600 286.130,297.600 285.800 C 297.600 285.470,297.870 285.200,298.200 285.200 C 298.530 285.200,298.800 284.930,298.800 284.600 C 298.800 284.270,299.070 284.000,299.400 284.000 C 299.730 284.000,300.000 283.730,300.000 283.400 C 300.000 283.070,300.270 282.800,300.600 282.800 C 300.930 282.800,301.200 282.530,301.200 282.200 C 301.200 281.870,301.470 281.600,301.800 281.600 C 302.130 281.600,302.400 281.330,302.400 281.000 C 302.400 280.670,302.593 280.400,302.829 280.400 C 303.382 280.400,304.400 279.382,304.400 278.829 C 304.400 278.593,304.670 278.400,305.000 278.400 C 305.330 278.400,305.600 278.130,305.600 277.800 C 305.600 277.470,305.870 277.200,306.200 277.200 C 306.530 277.200,306.800 276.930,306.800 276.600 C 306.800 276.270,307.070 276.000,307.400 276.000 C 307.730 276.000,308.000 275.730,308.000 275.400 C 308.000 275.070,308.270 274.800,308.600 274.800 C 308.930 274.800,309.200 274.530,309.200 274.200 C 309.200 273.870,309.470 273.600,309.800 273.600 C 310.130 273.600,310.400 273.330,310.400 273.000 C 310.400 272.670,310.593 272.400,310.829 272.400 C 311.382 272.400,312.400 271.382,312.400 270.829 C 312.400 270.593,312.670 270.400,313.000 270.400 C 313.330 270.400,313.600 270.130,313.600 269.800 C 313.600 269.470,313.870 269.200,314.200 269.200 C 314.530 269.200,314.800 268.930,314.800 268.600 C 314.800 268.270,315.070 268.000,315.400 268.000 C 315.730 268.000,316.000 267.730,316.000 267.400 C 316.000 267.070,316.270 266.800,316.600 266.800 C 316.930 266.800,317.200 266.530,317.200 266.200 C 317.200 265.870,317.470 265.600,317.800 265.600 C 318.130 265.600,318.400 265.330,318.400 265.000 C 318.400 264.670,318.593 264.400,318.829 264.400 C 319.382 264.400,320.400 263.382,320.400 262.829 C 320.400 262.593,320.670 262.400,321.000 262.400 C 321.330 262.400,321.600 262.130,321.600 261.800 C 321.600 261.470,321.870 261.200,322.200 261.200 C 322.530 261.200,322.800 260.930,322.800 260.600 C 322.800 260.270,323.070 260.000,323.400 260.000 C 323.730 260.000,324.000 259.730,324.000 259.400 C 324.000 259.070,324.270 258.800,324.600 258.800 C 324.930 258.800,325.200 258.530,325.200 258.200 C 325.200 257.870,325.470 257.600,325.800 257.600 C 326.130 257.600,326.400 257.330,326.400 257.000 C 326.400 256.670,326.593 256.400,326.829 256.400 C 327.382 256.400,328.400 255.382,328.400 254.829 C 328.400 254.593,328.670 254.400,329.000 254.400 C 329.330 254.400,329.600 254.130,329.600 253.800 C 329.600 253.470,329.870 253.200,330.200 253.200 C 330.530 253.200,330.800 252.930,330.800 252.600 C 330.800 252.270,331.070 252.000,331.400 252.000 C 331.730 252.000,332.000 251.730,332.000 251.400 C 332.000 251.070,332.270 250.800,332.600 250.800 C 332.930 250.800,333.200 250.530,333.200 250.200 C 333.200 249.870,333.470 249.600,333.800 249.600 C 334.130 249.600,334.400 249.330,334.400 249.000 C 334.400 248.670,334.593 248.400,334.829 248.400 C 335.382 248.400,336.400 247.382,336.400 246.829 C 336.400 246.593,336.670 246.400,337.000 246.400 C 337.330 246.400,337.600 246.130,337.600 245.800 C 337.600 245.470,337.870 245.200,338.200 245.200 C 338.530 245.200,338.800 244.930,338.800 244.600 C 338.800 244.270,339.070 244.000,339.400 244.000 C 339.730 244.000,340.000 243.730,340.000 243.400 C 340.000 243.070,340.270 242.800,340.600 242.800 C 340.930 242.800,341.200 242.530,341.200 242.200 C 341.200 241.870,341.470 241.600,341.800 241.600 C 342.130 241.600,342.400 241.330,342.400 241.000 C 342.400 240.670,342.593 240.400,342.829 240.400 C 343.382 240.400,344.400 239.382,344.400 238.829 C 344.400 238.593,344.670 238.400,345.000 238.400 C 345.330 238.400,345.600 238.130,345.600 237.800 C 345.600 237.470,345.870 237.200,346.200 237.200 C 346.530 237.200,346.800 236.930,346.800 236.600 C 346.800 236.270,347.070 236.000,347.401 236.000 C 347.934 236.000,347.990 225.447,347.901 142.500 L 347.800 49.000 211.300 48.899 L 74.800 48.799 74.800 49.613 M319.600 150.400 C 319.600 215.200,319.531 223.600,319.000 223.600 C 318.670 223.600,318.400 223.870,318.400 224.200 C 318.400 224.530,318.206 224.800,317.968 224.800 C 317.730 224.800,316.470 225.866,315.168 227.168 C 313.866 228.470,312.800 229.730,312.800 229.968 C 312.800 230.206,312.530 230.400,312.200 230.400 C 311.870 230.400,311.600 230.670,311.600 231.000 C 311.600 231.330,311.330 231.600,311.000 231.600 C 310.670 231.600,310.400 231.870,310.400 232.200 C 310.400 232.530,310.206 232.800,309.968 232.800 C 309.730 232.800,308.470 233.866,307.168 235.168 C 305.866 236.470,304.800 237.730,304.800 237.968 C 304.800 238.206,304.530 238.400,304.200 238.400 C 303.870 238.400,303.600 238.670,303.600 239.000 C 303.600 239.330,303.330 239.600,303.000 239.600 C 302.670 239.600,302.400 239.870,302.400 240.200 C 302.400 240.530,302.196 240.800,301.946 240.800 C 301.696 240.800,301.075 241.250,300.565 241.800 C 300.055 242.350,299.450 242.800,299.219 242.800 C 298.989 242.800,298.800 242.989,298.800 243.219 C 298.800 243.450,298.350 244.055,297.800 244.565 C 297.250 245.075,296.800 245.696,296.800 245.946 C 296.800 246.196,296.530 246.400,296.200 246.400 C 295.870 246.400,295.600 246.670,295.600 247.000 C 295.600 247.330,295.330 247.600,295.000 247.600 C 294.670 247.600,294.400 247.870,294.400 248.200 C 294.400 248.530,294.196 248.800,293.946 248.800 C 293.696 248.800,293.075 249.250,292.565 249.800 C 292.055 250.350,291.450 250.800,291.219 250.800 C 290.989 250.800,290.800 250.989,290.800 251.219 C 290.800 251.450,290.350 252.055,289.800 252.565 C 289.250 253.075,288.800 253.696,288.800 253.946 C 288.800 254.196,288.530 254.400,288.200 254.400 C 287.870 254.400,287.600 254.670,287.600 255.000 C 287.600 255.330,287.330 255.600,287.000 255.600 C 286.670 255.600,286.400 255.870,286.400 256.200 C 286.400 256.530,286.196 256.800,285.946 256.800 C 285.696 256.800,285.075 257.250,284.565 257.800 C 284.055 258.350,283.450 258.800,283.219 258.800 C 282.989 258.800,282.800 258.989,282.800 259.219 C 282.800 259.450,282.350 260.055,281.800 260.565 C 281.250 261.075,280.800 261.696,280.800 261.946 C 280.800 262.196,280.530 262.400,280.200 262.400 C 279.870 262.400,279.600 262.670,279.600 263.000 C 279.600 263.330,279.330 263.600,279.000 263.600 C 278.670 263.600,278.400 263.870,278.400 264.200 C 278.400 264.530,278.196 264.800,277.946 264.800 C 277.696 264.800,277.075 265.250,276.565 265.800 C 276.055 266.350,275.450 266.800,275.219 266.800 C 274.989 266.800,274.800 267.070,274.800 267.400 C 274.800 267.929,270.499 268.000,238.489 268.000 C 199.018 268.000,200.800 267.905,200.800 270.005 C 200.800 270.222,200.530 270.400,200.200 270.400 C 199.870 270.400,199.600 270.670,199.600 271.000 C 199.600 271.330,199.330 271.600,199.000 271.600 C 198.670 271.600,198.400 271.870,198.400 272.200 C 198.400 272.530,198.206 272.800,197.968 272.800 C 197.405 272.800,192.800 277.405,192.800 277.968 C 192.800 278.206,192.530 278.400,192.200 278.400 C 191.870 278.400,191.600 278.670,191.600 279.000 C 191.600 279.330,191.330 279.600,191.000 279.600 C 190.670 279.600,190.400 279.870,190.400 280.200 C 190.400 280.530,190.206 280.800,189.968 280.800 C 189.405 280.800,184.800 285.405,184.800 285.968 C 184.800 286.206,184.530 286.400,184.200 286.400 C 183.870 286.400,183.600 286.670,183.600 287.000 C 183.600 287.330,183.330 287.600,183.000 287.600 C 182.670 287.600,182.400 287.870,182.400 288.200 C 182.400 288.530,182.206 288.800,181.968 288.800 C 181.405 288.800,176.800 293.405,176.800 293.968 C 176.800 294.206,176.530 294.400,176.200 294.400 C 175.870 294.400,175.600 294.670,175.600 295.000 C 175.600 295.330,175.330 295.600,175.000 295.600 C 174.670 295.600,174.400 295.870,174.400 296.200 C 174.400 296.530,174.206 296.800,173.968 296.800 C 173.405 296.800,168.800 301.405,168.800 301.968 C 168.800 302.206,168.530 302.400,168.200 302.400 C 167.870 302.400,167.600 302.670,167.600 303.000 C 167.600 303.330,167.330 303.600,167.000 303.600 C 166.670 303.600,166.400 303.870,166.400 304.200 C 166.400 304.530,166.206 304.800,165.969 304.800 C 165.732 304.800,164.967 305.371,164.269 306.069 L 163.000 307.339 162.896 287.669 L 162.792 268.000 131.996 268.000 L 101.200 268.000 101.200 172.600 L 101.200 77.200 210.400 77.200 L 319.600 77.200 319.600 150.400 M175.600 167.600 L 175.600 207.600 188.000 207.600 L 200.400 207.600 200.400 167.600 L 200.400 127.600 188.000 127.600 L 175.600 127.600 175.600 167.600 M247.600 167.600 L 247.600 207.600 260.000 207.600 L 272.400 207.600 272.400 167.600 L 272.400 127.600 260.000 127.600 L 247.600 127.600 247.600 167.600 " stroke="none" fill="#6444a4" fill-rule="evenodd"></path><path id="path1" d="" stroke="none" fill="#6844a4" fill-rule="evenodd"></path><path id="path2" d="" stroke="none" fill="#6844a4" fill-rule="evenodd"></path><path id="path3" d="" stroke="none" fill="#6844a4" fill-rule="evenodd"></path><path id="path4" d="" stroke="none" fill="#6844a4" fill-rule="evenodd"></path></g></svg>