<svg xmlns="http://www.w3.org/2000/svg" width="400" height="168.124" fill-rule="evenodd" xmlns:v="https://vecta.io/nano"><path d="M17.318.183c-1.465.188-4.203.845-4.203 1.009 0 .072-.17.179-.379.238-.815.232-2.48.982-2.48 1.117 0 .079-.077.143-.171.143-.237 0-1.486.826-2.098 1.386-.278.254-.558.463-.624.463-.176.001-2.991 2.792-2.991 2.965 0 .083-.208.374-.463.647s-.543.651-.643.839c-.346.657-.661 1.171-.833 1.361-.096.106-.396.752-.668 1.436l-.588 1.328c-.213.191-.69 2.078-.928 3.666-.222 1.488-.248 7.287-.206 46.977l.047 45.279.452 1.812c.248.996.568 1.929.711 2.072s.26.358.26.479c0 .301.789 2.062.957 2.135.075.033.363.495.641 1.026s.56.966.628.967.308.284.534.631c.495.762 1.768 2.098 2.764 2.9.402.324.858.705 1.014.847s.584.437.951.654a36.74 36.74 0 0 1 1.267.795c.33.219 1.049.557 1.597.749s1.035.413 1.083.49c.123.199 2.598.828 3.739.95.531.056.966.168.966.247s70.191.144 157.806.144h157.806l.58.564c.319.31.58.618.58.686 0 .126 2.393 3.244 3.018 3.931.195.213.544.69.777 1.059s.533.712.668.764.245.167.245.255c0 .182.692 1.125 1.387 1.891.255.28.463.605.463.722s.154.309.343.425.532.533.764.926.491.715.577.715.266.208.399.462.384.614.558.799.622.753.997 1.261.807 1.029.96 1.156.278.33.278.452.136.321.304.442.549.579.848 1.019.617.798.705.798.16.077.16.171c0 .156 1.691 2.42 2.263 3.03.133.142.428.532.655.867.419.617.662.915 1.496 1.837.254.281.462.547.462.593 0 .129.87 1.27 1.384 1.815.256.272.466.593.466.713s.154.314.343.431.531.53.76.919.51.768.624.841.434.473.711.889.592.814.701.884.371.41.583.757.559.767.77.936.384.395.385.504.266.501.592.87c1.152 1.311 1.403 1.618 1.458 1.782.094.283 3.209 3.347 3.402 3.347.1 0 .27.14.377.311s.56.482 1.007.692.851.431.897.492c1.167 1.544 8.256 1.437 9.96-.151.198-.184.423-.336.5-.336.204 0 1.982-1.717 1.982-1.915 0-.092.181-.361.402-.597s.576-.922.789-1.523.439-1.131.501-1.177c.423-.316.494-3.008.494-18.803l.252-16.506c.139 0 .253-.065.253-.144s.435-.191.966-.247c1.221-.13 3.639-.759 3.713-.966.031-.086.154-.156.274-.156.294 0 2.13-.817 2.445-1.087.138-.119.593-.397 1.01-.616s.92-.55 1.118-.735.689-.601 1.091-.925c.877-.706 2.027-1.883 2.628-2.69.241-.324.521-.664.623-.757s.401-.546.667-1.008.54-.879.608-.925c.17-.115.998-2.006.998-2.279 0-.121.103-.323.23-.45.325-.324.743-1.856 1.033-3.782.382-2.532.373-90.154-.009-92.522-.247-1.531-.721-3.354-.918-3.531-.052-.046-.316-.644-.588-1.328s-.572-1.327-.668-1.429-.356-.526-.581-.942-.621-.979-.882-1.251-.476-.562-.476-.644c0-.191-2.95-3.149-3.14-3.149-.078 0-.33-.171-.56-.379-.551-.497-1.795-1.303-2.013-1.303-.094 0-.171-.064-.171-.143 0-.151-1.965-1.035-2.3-1.034-.109 0-.303-.104-.43-.231-.296-.297-2.656-.876-4.496-1.105-1.741-.216-363.515-.21-365.2.006m365.196 8.231c4.735 1.128 8.699 5.107 9.675 9.709.356 1.679.359 88.835.003 90.514-1.384 6.528-6.288 10.014-14.341 10.194l-3.569.08-.046 20.032-.045 20.031-.368.797c-1.191 2.577-3.733 1.33-7.655-3.754l-9.968-12.83-.925-1.192-1.177-1.516-1.177-1.513-5.283-6.81-4.091-5.267-1.723-2.196-2.774-3.594-1.681-2.209-159.395-.05-159.395-.051-1.345-.39c-4.822-1.4-8.448-5.135-9.413-9.698-.365-1.727-.383-88.5-.018-90.401.942-4.914 4.932-8.814 10.272-10.041.406-.093 72.357-.161 181.841-.17l181.168-.016 1.43.341M162.589 23.289c-4.878.999-8.872 4.942-9.828 9.701-.38 1.895-.395 57.979-.016 59.783 1.082 5.142 5.286 9.101 10.491 9.879 2.891.433 198.047.281 199.69-.155a13.1 13.1 0 0 0 9.332-9.441c.337-1.332.341-1.693.296-30.599l-.045-29.25-.612-1.632c-1.479-3.939-4.652-6.931-8.635-8.145-1.339-.407-198.693-.546-200.673-.141m133.018 5.536c2.922.62 4.331 1.929 5.264 4.891l2.366 7.646 1.259 4.119 2.438 7.903 1.238 4.035 1.286 4.204 1.089 3.53 1.266 4.12 1.262 4.119 1.262 4.12 1.261 4.119 1.342 4.372 1.275 4.119c.841 2.611-.053 4.248-3.098 5.669-3.877 1.81-7.584 1.134-8.269-1.505-.169-.653-.69-2.46-1.759-6.098l-.756-2.69c-.198-.74-.514-1.818-.7-2.396l-.34-1.051h-10.499-10.499l-.144.381c-.08.209-.575 1.892-1.101 3.741l-1.626 5.714c-1.293 4.535-2.309 5.349-6.021 4.824-4.878-.69-7.109-3.303-5.932-6.95l1.295-4.179 1.265-4.119 1.259-4.12 1.261-4.119 1.263-4.119 1.262-4.12 1.147-3.699 3.641-11.853 1.342-4.372 1.263-4.119 1.261-4.12c1.266-4.192 1.418-4.62 1.926-5.422 1.147-1.807 3.602-2.793 6.988-2.804 1.017-.004 2.351.099 2.963.229m-262.11.45c-3.073.457-5.825 2.451-6.042 4.378-.083.731.072 1.324 1.635 6.28l1.259 4.119 1.257 4.12 1.262 4.119 1.264 4.119 1.09 3.531 2.53 8.239 1.262 4.119 1.165 3.783 1.263 4.12 1.262 4.119 1.261 4.12c1.495 4.951 1.751 5.635 2.377 6.367 2.996 3.5 11.665 3.209 14.008-.47.269-.423.676-1.412.904-2.198l1.298-4.288 1.256-4.119 1.256-4.12 1.261-4.119 1.258-4.119 2.441-7.987.976-3.195 1.467-4.792 1.468-4.792 1.179-3.867 2.339-7.691c1.428-4.677 1.443-4.74 1.329-5.504-.441-2.939-6.491-5.395-9.78-3.97-1.112.482-1.482 1.01-1.977 2.82l-2.655 9.469-.972 3.531-2.025 7.146-1.268 4.54-1.175 4.203-1.176 4.204-1.174 4.203-1.345 4.792-1.267 4.456c-.173.555-.396 1.33-.497 1.723-.259 1.006-.428.895-.767-.504-.163-.671-.402-1.522-.531-1.892s-.533-1.769-.898-3.11l-2.519-8.996-1.259-4.455-1.153-4.12-1.286-4.54-1.258-4.455-1.277-4.54-2.269-8.07c-1.781-6.576-2.545-7.334-6.757-6.707m55.7-.03c-1.287.313-2.446 1.353-2.774 2.488-.13.45-.169 9.577-.134 31.415l.05 30.782.413.603c1.953 2.85 9.202 2.836 10.979-.021l.377-.607.085-12.526.084-12.527 3.893-.045 3.894-.045.662 1.306 5.758 11.227 2.943 5.716 2.897 5.633c1.386 2.691 2.045 3.501 3.374 4.151 2.58 1.263 7.036-.847 8.631-4.086.919-1.867 1.191-1.23-6.743-15.786l-1.095-2.018-1.092-2.017c-3.537-6.524-3.364-5.912-1.827-6.464 6.545-2.35 10.334-8.347 10.684-16.907.514-12.555-5.803-19.276-19.033-20.254-2.633-.194-21.238-.21-22.026-.018m98.559.022c11.186 1.527 17.906 8.015 17.927 17.307.01 4.648-1.277 5.96-5.851 5.963s-5.908-.987-6.299-4.682c-.574-5.424-3.677-8.164-9.254-8.17-5.178-.006-8.04 1.984-9.445 6.567l-.382 1.247-.055 14.796c-.058 15.693-.022 16.604.722 18.657 1.446 3.987 4.23 5.697 9.244 5.68 5.871-.02 8.541-2.552 9.174-8.7.366-3.559 1.638-4.669 5.622-4.906 5.174-.308 7.115 2.049 6.487 7.878-1.12 10.4-10.49 16.992-23.3 16.39-11.885-.559-18.809-6.784-19.919-17.909-.228-2.285-.232-29.921-.005-32.319 1.192-12.575 11.345-19.708 25.334-17.799m36.372.322c1.118.477 1.924 1.05 2.315 1.646.267.408.298 1.471.375 13.062l.084 12.618h10.341 10.34l.084-12.637.084-12.637.522-.646c2.352-2.915 9.556-2.496 11.178.65.504.977.505 61.498.001 62.477-1.498 2.912-7.469 3.638-10.557 1.283-1.212-.925-1.134.029-1.228-15.203l-.084-13.703h-10.34-10.341l-.084 13.813-.084 13.814-.52.646c-2.548 3.168-10.698 2.352-11.397-1.14-.181-.905-.122-61.04.06-61.676.69-2.406 5.983-3.76 9.251-2.367m136.071-.269c3.249 1.394 3.334 8.582.12 10.298-.54.289-1.172.322-7.734.399l-7.146.084-.084 26.993c-.093 30.053.022 27.357-1.216 28.301-3.306 2.522-9.833 1.468-10.721-1.731-.107-.384-.167-10.127-.168-27.115l-.001-26.515-7.188-.051c-6.385-.045-7.246-.082-7.709-.336-3.05-1.671-3.238-8.087-.294-10.037l.789-.522h20.405l20.947.232M111.675 39.935c4.628.955 6.893 4.49 6.626 10.338-.237 5.187-2.113 7.674-6.67 8.843-.747.192-2.197.232-7.146.197l-6.208-.044-.044-9.794-.043-9.794h6.127c4.812 0 6.392.054 7.358.254m180.89 5.03c-.095.25-.173.521-.173.603s-.182.738-.404 1.46-.834 2.863-1.36 4.758l-1.353 4.792-1.676 5.885-1.764 6.221-1.009 3.683c0 .055 3.556.1 7.902.1 5.222 0 7.903-.057 7.903-.17 0-.093-.159-.718-.352-1.387l-.826-2.898-1.261-4.456-2.599-9.163-2.296-8.155c-.511-1.869-.508-1.864-.732-1.273" fill="#040404"/><path d="M17.609 8.511c-3.931.843-7.895 4.249-9.087 7.808-.948 2.827-.872-1.294-.872 47.237v44.304l.471 1.514c1.385 4.45 4.756 7.705 9.281 8.963.938.26 12.275.286 160.512.366l159.503.086 2.216 2.859 2.918 3.763 1.123 1.453 1.846 2.374 14.552 18.747c8.53 11.443 11.498 14.234 13.198 12.415.839-.898.837-.849.837-21.927v-19.728l3.741-.087c4.137-.097 5.056-.252 7.097-1.195 3.322-1.534 5.775-4.398 6.931-8.089l.474-1.514.048-43.547-.118-44.809c-.723-5.473-4.764-9.931-9.969-10.999-1.896-.389-362.89-.384-364.702.006M363.43 23.346c4.518 1.516 7.748 4.863 8.95 9.273.455 1.67.461 58.8.006 60.569-1.124 4.37-4.192 7.624-8.642 9.164l-1.827.632-98.445.048c-70.306.034-98.848-.004-99.855-.135-5.449-.708-10.131-5.089-11.116-10.402-.292-1.572-.219-58.209.076-59.456 1.205-5.093 4.983-8.768 10.265-9.984.406-.094 39.947-.145 100.042-.13l99.369.026 1.177.395m-72.467 5.355c-3.139.416-5.232 2.037-6.04 4.674l-1.118 3.615-1.08 3.531-1.262 4.12-1.266 4.119-1.26 4.119-1.361 4.456-1.161 3.783-2.522 8.239-1.167 3.783-1.346 4.372-2.539 8.238c-1.17 3.754-1.668 5.602-1.669 6.196-.006 3.072 6.325 5.799 9.846 4.241 1.112-.491 1.306-.893 2.528-5.224l1.101-3.868 1.026-3.658.376-1.388 10.746.043 10.746.043.371 1.345 1.045 3.699 1.379 4.876c.787 2.817 1.046 3.365 1.838 3.899 2.597 1.75 8.812-.118 10.018-3.01.422-1.01.393-1.149-1.484-7.236l-1.188-3.867-1.278-4.161-1.083-3.531-1.268-4.12-1.341-4.371-1.055-3.447-1.475-4.792-1.252-4.119-1.258-4.12-2.61-8.491-1.082-3.531-1.148-3.783c-1.014-3.481-4.835-5.321-9.707-4.674m-253.519.821c1.155.559 1.415 1.023 2.258 4.035l1.24 4.442 1.256 4.456 2.442 8.659 1.262 4.456 1.261 4.455 1.161 4.12 2.538 8.995 2.143 7.463.231.653.534-1.998 1.223-4.437 1.347-4.792 2.421-8.659 1.256-4.455 2.442-8.743.897-3.195.956-3.363c3.415-12.226 3.087-11.292 4.19-11.938 2.84-1.665 8.626.043 10.089 2.979.572 1.148.562 1.264-.345 4.229l-1.159 3.805-1.262 4.12-1.256 4.119-1.257 4.119-1.363 4.456-2.337 7.65-1.359 4.456-1.171 3.867-2.513 8.239-1.358 4.456-1.246 4.119c-1.235 4.121-1.528 4.663-3.049 5.636-1.686 1.078-3.715 1.513-6.435 1.379-4.423-.217-6.445-1.613-7.533-5.199l-2.316-7.533-1.265-4.119-2.523-8.239-1.26-4.119-1.261-4.12-1.261-4.119-1.267-4.119-1.262-4.12-1.081-3.531-1.347-4.371-1.274-4.12c-1.555-4.956-1.632-5.297-1.416-6.292.663-3.068 6.758-5.366 10.029-3.782m75.965-.283c11.326 1.872 16.618 7.477 17.015 18.023.372 9.847-3.797 16.929-11.558 19.634-.404.141-.496.242-.367.4.096.116 2.534 4.6 5.418 9.963l6.105 11.35c1.607 2.985.566 5.665-2.968 7.642-3.992 2.232-6.401 1.218-8.967-3.775l-7.479-14.544-3.034-5.926-1.563-3.067-3.825-.001-3.825-.001-.004 12.316c-.004 13.942.065 13.211-1.346 14.233-3.327 2.41-9.936 1.381-10.759-1.676-.33-1.223-.137-62.016.199-62.62a4.74 4.74 0 0 1 2.746-2.122c.817-.21 22.847-.054 24.212.171m65.826.26c-9.725 1.397-15.392 7.237-16.572 17.075-.292 2.44-.346 30.046-.064 32.811 1.178 11.549 8.555 17.799 21.008 17.799 13.417 0 22.467-7.717 21.986-18.749-.165-3.801-1.382-5.012-5.257-5.233-4.446-.254-6.248.989-6.623 4.57-.665 6.339-3.532 9.064-9.518 9.044-5.326-.017-8.655-2.503-9.579-7.154-.379-1.912-.385-30.876-.006-32.858.907-4.737 4.105-7.171 9.417-7.166 6.234.005 8.965 2.46 9.752 8.764.397 3.188 1.949 4.155 6.469 4.031 3.908-.107 5.193-1.343 5.35-5.145.363-8.851-5.997-15.806-16.107-17.611-2.173-.388-8.08-.491-10.256-.178m39.596-.138c-2.286.576-3.446 1.362-3.779 2.562-.357 1.285-.215 61.365.146 62.162 1.438 3.165 8.884 3.448 11.032.419l.504-.712.046-13.773.046-13.773h10.416 10.416l.046 13.773.047 13.773.512.729c2.114 3.013 9.791 2.686 11.112-.474.34-.815.344-61.504.003-62.316-1.321-3.156-9.492-3.365-11.284-.289-.335.576-.344.858-.39 13.073l-.047 12.484h-10.42-10.419l-.001-12.148c-.001-13.271.014-13.06-.999-14.073-1.157-1.157-4.96-1.928-6.987-1.417m99.42.239c-2.349 1.24-2.917 6.578-.954 8.96 1.081 1.311.924 1.289 8.965 1.289h7.15l.045 26.944.335 27.475c1.754 3.204 9.76 3.087 11.236-.164.31-.681.32-1.541.323-27.479l.004-26.776h7.067c7.634 0 7.662-.003 8.613-.916 2.492-2.392 1.896-8.428-.937-9.498-1.002-.379-41.117-.221-41.847.165M98.361 49.429v9.78l6.599-.062c7.452-.071 7.753-.115 9.826-1.455 4.93-3.187 4.545-14.137-.589-16.734-2.206-1.116-2.565-1.163-9.489-1.239l-6.347-.069v9.779m195.871-.333l1.431 5.044 1.264 4.456 1.375 4.876 2.497 9.003c0 .1-3.054.161-8.071.161-8.805 0-8.28.063-7.889-.956.099-.261.439-1.419.754-2.575l1.247-4.456 1.262-4.456 1.261-4.455 2.559-9.08c.866-3.165.697-3.343 2.31 2.438m93.376 78.52c-.756.159-1.341.427-1.685.771-.117.117-.402.361-.633.543-1.068.84-1.612 3.559-1.09 5.441.181.652 1.561 2.325 1.918 2.325.116 0 .38.147.587.326.667.578 3.683.666 4.258.124.115-.109.408-.3.649-.424.728-.375 1.263-.964 1.653-1.821.204-.446.44-.942.526-1.103.211-.395.201-2.65-.012-2.65-.093 0-.168-.115-.168-.256 0-.503-.847-1.861-1.343-2.155-.279-.164-.507-.362-.507-.439 0-.493-2.838-.96-4.153-.682m2.358 1.19c2.185.607 3.333 3.328 2.259 5.356-.522.986-.648.992-1.091.051-.52-1.106-.52-1.239 0-1.755 1.479-1.465.178-2.824-2.704-2.824h-1.881v2.859 2.858h.757.756v-1.093-1.093h.489c.45 0 .521.088.882 1.093l.392 1.093h.742.742l-.484.416c-.836.718-3.088.772-3.771.089-.171-.171-.461-.392-.644-.489s-.529-.573-.769-1.055c-1.506-3.022 1.139-6.391 4.325-5.506m-.253 2.187c.324.518-.018.827-.915.827-.729 0-.736-.005-.736-.588 0-.734 1.231-.912 1.651-.239" fill="#fbfbfb"/><path d="M18.252 8.217c-.272.058 81.515.106 181.748.106l181.748-.106c-.273-.059-82.059-.107-181.748-.107l-181.748.107m-3.414 1.109c-.485.226-.883.448-.883.493 0 .073 1.829-.701 2.004-.849.217-.182-.354-.002-1.121.356m369.707-.183c.172.155 1.5.775 1.5.7 0-.096-1.269-.764-1.451-.764-.065 0-.087.029-.049.064m-371.556 1.27c-.375.272-.743.593-.818.715-.112.181.895-.526 1.524-1.07.381-.329-.083-.096-.706.355m373.224-.448c0 .043.321.289.714.546s1.279 1.042 1.968 1.745c.749.765 1.029.988.694.557-.775-1.003-3.376-3.196-3.376-2.848M11.165 11.98c-.731.773-1.158 1.303-1.051 1.303.037 0 .467-.454.956-1.009 1.026-1.166 1.082-1.34.095-.294m-1.62 2.017c-.368.568-.697 1.243-.513 1.051.236-.245.929-1.429.837-1.429-.043 0-.189.17-.324.378m380.884.211c.207.37.449.748.538.84.251.264-.324-.801-.637-1.177-.153-.185-.109-.033.099.337M8.096 17.013c-.097.306-.219.86-.271 1.23-.062.444.023.279.25-.485.34-1.148.359-1.815.021-.745m383.609-.146c.054.26.203.79.332 1.177l.233.703-.101-.667c-.055-.367-.204-.897-.331-1.177l-.231-.51.098.474m.6 2.637c0 .324.034.456.077.294a1.39 1.39 0 0 0 0-.588c-.043-.162-.077-.03-.077.294m-384.7.168c0 .324.035.456.077.294a1.39 1.39 0 0 0 0-.588c-.042-.162-.077-.03-.077.294m155.068 3.456c-.462.127-.613.18-.336.118.869-.193 198.269-.239 199.496-.047l1.513.254c.231.046.08-.049-.336-.21-1.035-.4-198.88-.513-200.337-.115m201.696.644c.171.156 2.172 1.108 2.172 1.033 0-.094-1.943-1.098-2.125-1.098-.065 0-.086.029-.047.065m-205.016.451c-.347.183-.631.371-.631.417 0 .075 1.328-.546 1.499-.701.194-.175-.311-.01-.868.284m207.776 1.025c1.058.801 2.619 2.405 3.225 3.314.793 1.189 1.009 1.433.665.752-.65-1.289-2.973-3.74-4.058-4.281-.185-.092-.109.005.168.215m-209.85.405l-.659.601.715-.545c.653-.498.812-.656.659-.656-.031 0-.353.27-.715.6m-1.342 1.123l-.494.546.547-.493c.3-.272.546-.518.546-.547 0-.13-.138-.015-.599.494M33.185 29.158c-.66.125-1.341.318-1.513.428-.303.193-.303.196.009.097 4.05-1.285 6.643-.395 7.487 2.572.216.759.425 1.348.465 1.308.124-.124-.642-2.516-.986-3.08-.733-1.2-3.096-1.773-5.462-1.325m36.912-.075c-.737.131-1.833.592-1.833.77 0 .046.233-.036.519-.184 1.156-.598 2.728-.648 5.198-.163.231.046.105-.023-.28-.153-.93-.313-2.647-.442-3.604-.27m19.1-.007c-1.34.323-2.963 1.836-2.936 2.736.004.12.122-.047.262-.37.331-.765.994-1.454 1.833-1.907 1.122-.605 20.517-.623 25.894-.024l.672.075-.588-.159c-1.644-.443-23.492-.748-25.137-.351m199.258.182c-.455.178-.909.41-1.009.517-.126.135-.059.131.218-.012.22-.113.788-.344 1.261-.512s.747-.309.608-.311-.624.141-1.078.318m8.214.002c.457.178.858.298.89.265.08-.08-1.255-.607-1.514-.597-.113.004.167.153.624.332m-117.35.075l-1.177.226 1.261-.11c1.636-.144 6.933-.143 8.659.001 1.04.087 1.192.075.673-.051-1.138-.277-8.066-.326-9.416-.066m39.344-.142c-.727.184-1.449.436-1.397.487.03.031.508-.051 1.062-.182 1.301-.306 3.792-.308 4.964-.004 1.051.273 1.283.236.466-.073-.559-.211-4.468-.386-5.095-.228m32.562.094c-.401.09-.696.197-.655.238s.477-.012.97-.118c.855-.183 3.921-.13 4.87.085.231.052.118-.012-.252-.142-.78-.274-3.814-.313-4.933-.063m67.186.065c-.623.338-.593.485.034.161.62-.321 40.81-.396 41.653-.079.662.25 1.474 1.075 1.826 1.856.164.363.329.628.367.59.313-.313-1.351-2.296-2.193-2.614-.83-.313-41.105-.23-41.687.086m-164.741.593c-.194.379-.323.718-.288.753s.229-.275.43-.689c.458-.943.335-.999-.142-.064m95.384.309c-.374.271-.738.593-.809.714s.055.059.278-.139.67-.52.994-.714.505-.354.403-.354-.491.221-.866.493m49.594 0c.343.291.854.808 1.135 1.149s.511.562.511.49c0-.203-1.544-1.802-1.926-1.995-.189-.095-.063.065.28.356m-268.624.038c-.739.39-2.449 2.024-2.449 2.341 0 .112.22-.1.489-.471.513-.709 1.024-1.124 2.231-1.814.878-.502.66-.547-.271-.056m37.782-.153c-.328.425-.44.686-.241.563s.597-.773.473-.773c-.038 0-.142.094-.232.21m7.534-.156c.314.244 1.835 1.101 1.835 1.033 0-.122-1.546-1.087-1.742-1.087-.09 0-.132.024-.093.054m149.932.307a4.1 4.1 0 0 1 .967.961c.226.333.411.499.411.369 0-.287-1.437-1.693-1.727-1.689-.113.002.043.163.349.359m61.3.055c-.287.227-.651.623-.808.881l-.285.468.41-.482c.226-.266.627-.66.892-.877.642-.525.459-.517-.209.01m30.575.046c-.435.629-.577.883-.492.883.04 0 .272-.303.517-.673.498-.752.476-.933-.025-.21m-198.707.126c.641.23 1.192.39 1.226.356.095-.095-1.14-.554-1.801-.671-.324-.056-.065.085.575.315m55.87.031c-.627.238-1.113.46-1.08.494s.661-.162 1.394-.434 1.219-.494 1.08-.494-.766.196-1.394.434m17.557-.373c.13.13 2.229.754 2.299.683.036-.036-.441-.222-1.061-.413-1.161-.359-1.372-.405-1.238-.27m23.802.562c-.344.352-.7.9-.791 1.218-.182.634-.243 60.768-.062 61.669.114.574 1.069 1.78 1.634 2.066.2.101.07-.065-.288-.369-1.396-1.18-1.274 1.903-1.278-32.354-.004-32.717-.049-31.205.953-32.23.343-.352.587-.64.541-.64s-.366.288-.709.64m42.918-.072c.319.335.606.609.638.609.143 0-.578-.829-.881-1.013-.185-.113-.076.069.243.404m112.839-.4c0 .046.22.689.49 1.429.546 1.496.696 1.52.183.03-.294-.856-.671-1.674-.673-1.459M77.823 31.743c.207.291.464.583.57.649s.024-.119-.184-.41-.464-.584-.57-.65-.024.119.184.411m42.914-.415c.257.2 2.004 1.11 2.004 1.043 0-.109-1.724-1.094-1.92-1.096-.085-.001-.123.023-.084.053m51.058.377c-.439.229-.799.453-.799.499s.379-.108.841-.342.841-.462.841-.507c0-.111.015-.117-.883.35m23.763-.201c.173.155 1.163.61 1.163.535 0-.097-.932-.597-1.112-.597-.067 0-.089.028-.051.062m-42.963 1.48c-.37 1.674-.325 59.3.047 60.39.323.949.372.684.105-.564-.36-1.676-.353-58.061.007-59.759.136-.641.216-1.196.179-1.233s-.189.488-.338 1.166m106.926 29.9l.123 30.879c.068-.107.124-14.003.124-30.879l-.124-30.88c-.068-.106-.123 13.789-.123 30.88M66.599 33.392c-.204.705-.342 1.312-.305 1.349s.235-.51.44-1.214.342-1.312.305-1.349-.235.51-.44 1.214m19.57 29.492l.044 15.342V47.541c-.024-8.438-.044-1.534-.044 15.343m111.382-30.3c.561.459 1.524 1.004 1.188.672-.139-.137-.555-.42-.925-.628-.567-.319-.608-.326-.263-.044m-74.642-.087c0 .035.359.319.798.629s.672.418.516.239c-.272-.314-1.314-1.002-1.314-.868m46.49.743c-1.275.997-2.67 2.437-3.308 3.414l-.494.757.472-.578c1.575-1.929 2.224-2.576 3.928-3.912.318-.25.541-.458.495-.462s-.538.347-1.093.781m115.285.414c-.2.664-.334 1.236-.298 1.272s.23-.477.431-1.139.335-1.234.298-1.272-.232.476-.431 1.139m31.352-.678c-.131.658-.108 2.624.038 3.142.06.213.109-.525.109-1.64 0-2.249.001-2.241-.147-1.502M78.773 34.048c0 .594.051.951.114.792s.114-.515.114-.792-.051-.634-.114-.792-.114.198-.114.792m221.874-.867c-.027.233.513 1.991.589 1.915.038-.038-.075-.517-.251-1.063s-.328-.93-.338-.852m-100.528 1.275a32.1 32.1 0 0 1 1.765 1.748c.443.484.696.726.56.539-.45-.625-2.269-2.463-2.78-2.811-.278-.189-.073.047.455.524m-74.259.559c.638.716 1.188 1.303 1.221 1.303.129 0-.989-1.299-1.666-1.934-.394-.37-.194-.086.445.631m246.816 27.953l.044 14.152V48.705c-.025-7.784-.044-1.366-.044 14.263M27.592 35.377c-.029.251.886 3.19.941 3.024.028-.084-.168-.833-.436-1.664s-.496-1.444-.505-1.36m12.699.767c.057.32.208.85.335 1.177l.231.594-.105-.582a7.73 7.73 0 0 0-.336-1.177l-.23-.595.105.583m87.174.972c.597.991.824 1.306.824 1.145 0-.179-1.01-1.775-1.124-1.775-.044 0 .091.284.3.63m-62.211 1.067c-.206.75-.344 1.395-.306 1.432s.236-.546.442-1.296.343-1.394.305-1.431-.236.545-.441 1.295m218.159-.419c-.162.515-.265.968-.228 1.005s.2-.355.363-.871.265-.967.228-1.004-.2.354-.363.87m-205.644.157c-.361 1.243-.239 1.366.146.145.163-.515.259-.974.214-1.019s-.207.348-.36.874m224.065-.763c0 .139.139.631.31 1.093s.31.728.31.589-.14-.631-.31-1.093-.31-.727-.31-.589m59.974.683c-.243.455-.373.785-.29.733.181-.111.867-1.424.787-1.504-.031-.031-.255.316-.497.771m-196.86.536c-.411.717-.696 1.422-.453 1.121.214-.264 1.127-2.003 1.052-2.003-.051 0-.32.397-.599.882m38.705.406c.303.571.575 1.013.604.984.074-.074-.556-1.273-.885-1.684-.148-.185-.021.13.281.7m113.252-.532c.331.639 1.774 1.764 1.988 1.55.042-.041-.157-.171-.441-.289s-.788-.525-1.119-.906-.524-.54-.428-.355m43.819.95c-.319.358-.318.359.058.162.208-.109.378-.272.378-.361 0-.239-.08-.202-.436.199m-232.079.059c.003.093.151.471.329.841s.276.483.219.252c-.119-.476-.557-1.35-.548-1.093m55.088.371c.208.04.548.04.756 0s.038-.073-.378-.073-.586.033-.378.073m-154.801.108c-.024.278.545 2.04.604 1.869.033-.096-.086-.587-.266-1.093s-.331-.855-.338-.776m69.343 9.736l.002 9.794 6.641-.002c5.031-.001 6.743-.053 7.062-.215l.42-.213-.42.116c-.231.064-3.39.148-7.019.185l-6.598.069-.045-9.764-.046-9.764.003 9.794m11.729-9.679a1.36 1.36 0 0 0 .589 0c.162-.042.029-.076-.295-.076s-.456.034-.294.076m-68.628.137c-.005.092.139.622.32 1.177s.285.746.229.426c-.111-.638-.534-1.873-.549-1.603m284.938.042l6.935.046.001 26.521c.001 26.072.029 27.574.527 27.882.098.06.076-.069-.049-.289-.187-.329-.234-5.095-.271-27.342l-.045-26.944-7.017.04-7.017.04 6.936.046m19.041 0c0 .115 5.229.112 11.434-.006 1.34-.025-.683-.063-4.498-.083s-6.936.019-6.936.089m-232.599.373c.474.168 1.031.397 1.24.509.216.115.332.128.271.028-.12-.193-1.847-.875-2.167-.856-.113.007.183.15.656.319m51.021.604c-.197.527-.33.988-.294 1.024s.225-.368.42-.898.327-.99.293-1.023-.222.37-.419.897m24.378-.691a14.62 14.62 0 0 1 1.304.58c.388.198.705.317.705.265 0-.145-2.067-1.091-2.354-1.077-.139.006.017.111.345.232m-9.046.256c-.393.178-.715.361-.715.407 0 .076 1.509-.536 1.668-.677.182-.161-.309-.023-.953.27m25.456.172c.523 1.81.883 2.907.89 2.715.016-.398-.514-2.269-.768-2.71l-.244-.425.122.42m77.671.942c-.162.516-.265.968-.228 1.005s.2-.355.363-.871.265-.967.228-1.004-.2.354-.363.87m-205.644.157c-.152.525-.246.986-.208 1.025s.193-.363.343-.891.244-.989.208-1.024-.19.364-.343.89m226.419-.762c0 .138.139.63.31 1.093s.31.727.31.588-.14-.63-.31-1.093-.31-.727-.31-.588M64.144 42.158l-.388 1.39c-.047.138-.032.205.033.147.157-.141.823-2.51.731-2.602-.039-.04-.209.44-.376 1.065m112.92-.165c-.532.532-1.06 1.156-1.173 1.387-.165.337-.132.321.169-.084.206-.278.791-.902 1.301-1.388s.869-.882.798-.882-.563.435-1.095.967m-62.072-.573c.241.299.855.693.855.548 0-.043-.246-.251-.546-.462-.388-.272-.478-.297-.309-.086m76.097.614c.455.463.866.841.912.841s-.289-.378-.744-.841-.866-.84-.912-.84.288.378.744.84m-74.9.43c.007.169.833 1.233.834 1.074.001-.051-.188-.349-.419-.663s-.418-.498-.415-.411m76.183 1.22c.216.375.418.656.45.625.089-.089-.447-1.062-.656-1.191-.102-.063-.009.192.206.566m-162.259-.078c-.027.229.688 2.488.763 2.413.038-.038-.114-.628-.339-1.312s-.415-1.179-.424-1.101m99.949.614c.337 2.992.273 6.2-.189 9.5-.07.499-.069.499.079.056.536-1.602.663-8.059.192-9.724-.161-.568-.164-.562-.082.168m32.704.367c-.106.492-.262 1.613-.348 2.492-.21 2.151-.205 30.242.006 32.282.173 1.669.487 3.434.593 3.328.033-.034-.061-.664-.211-1.401-.235-1.158-.281-3.408-.34-16.723-.067-15.081-.002-17.793.478-19.989.089-.405.128-.77.088-.81s-.16.329-.266.821m12.282.553c-.194.518-.351 1.072-.348 1.23s.185-.241.405-.889c.483-1.415.44-1.67-.057-.341m117.545-.64c-.223.424-.901 2.943-.816 3.029.038.038.238-.558.444-1.326s.453-1.491.549-1.608.132-.257.08-.309-.168.044-.257.214m-175.217-.112c-.006.047.142.538.329 1.093s.303.771.257.481c-.074-.477-.558-1.778-.586-1.574m-74.559.667c.11.638.533 1.873.548 1.603.006-.092-.138-.622-.32-1.177s-.284-.746-.228-.426m32.598.6c-.152.525-.246.987-.208 1.025s.193-.362.343-.89.244-.99.208-1.025-.19.365-.343.89m205.476.348c-.162.515-.265.967-.228 1.004s.2-.354.363-.87.265-.968.228-1.005-.2.355-.363.871m-217.999.579c-.203.753-.335 1.403-.294 1.444s.243-.539.446-1.292.335-1.402.293-1.444-.242.54-.445 1.292m241.464-1.185c0 .139.139.631.31 1.093s.31.727.31.589-.14-.631-.31-1.093-.31-.727-.31-.589m-11.24.252l.381 1.392c.158.581.317 1.025.354.988.085-.085-.573-2.477-.719-2.614-.06-.056-.067.049-.016.234m-87.428 1.009c.001.648.031.892.067.543s.036-.879-.001-1.177-.067-.013-.066.634m-12.218.505c.152 1.733.376 2.993.567 3.181.132.131.139.063.022-.245-.088-.235-.217-1.024-.285-1.754s-.185-1.521-.259-1.759c-.082-.266-.1-.045-.045.577m-75.207 2.27c0 .971.028 1.368.062.882s.034-1.28 0-1.765-.062-.088-.062.883m-86.795-1.346c0 .139.139.631.31 1.093s.31.728.31.589-.139-.631-.31-1.093-.31-.727-.31-.589m12.522 1.171a7.61 7.61 0 0 0 .335 1.177l.231.595-.105-.583c-.058-.32-.209-.85-.336-1.177l-.23-.594.105.582m235.632.856c-.201.662-.335 1.234-.298 1.271s.231-.475.431-1.138.333-1.236.298-1.272-.23.477-.431 1.139m11.273.175c-.206.75-.344 1.395-.306 1.432s.236-.546.442-1.296.343-1.394.305-1.431-.236.545-.441 1.295m-216.813-.251c-.163.515-.266.968-.229 1.005s.201-.355.363-.871.265-.967.228-1.004-.2.354-.362.87m231.485-.647c.361 1.27.683 2.212.738 2.157.088-.087-.619-2.452-.733-2.452-.048 0-.051.133-.005.295m-100.62.831c-.238.486-.328.798-.2.692.249-.208.756-1.306.679-1.475-.025-.057-.241.296-.479.783m89.387-.369c.046.277.232.958.412 1.513s.29.782.243.505-.231-.959-.412-1.514-.289-.782-.243-.504m-232.607.866c-.312 1.189-.405 1.657-.312 1.572.131-.119.628-2.074.548-2.154-.036-.036-.143.226-.236.582m133.199.605c.364.347.744.631.846.631s-.004-.125-.232-.278-.61-.437-.846-.631-.133-.069.232.278m8.605.474c-.278.178-.418.323-.313.324s.37-.148.589-.33c.499-.416.379-.414-.276.006m-170.886.157c0 .138.139.63.31 1.092s.31.728.31.589-.139-.631-.31-1.093-.31-.727-.31-.588m85.156 1.142l-.38 1.38c-.042.138.031.063.161-.168.258-.455.7-2.161.589-2.272-.037-.037-.204.44-.37 1.06m81.148-.514c.439.034 1.158.034 1.597 0s.08-.063-.798-.063-1.238.028-.799.063m-153.874.464c-.005.093.139.623.32 1.177s.285.747.229.427c-.111-.638-.534-1.873-.549-1.604m261.669.211c.361 1.27.683 2.213.738 2.157.088-.087-.619-2.452-.733-2.452-.048 0-.051.133-.005.295m-17.11 1.488c-.247.893-.42 1.653-.383 1.69s.27-.663.518-1.556.42-1.653.383-1.69-.27.663-.518 1.556m-11.276-.516c-.362 1.243-.239 1.366.146.146.162-.516.258-.974.213-1.019s-.206.348-.359.873m-205.539-.074c-.114.379-.176.721-.138.758s.162-.241.276-.621.175-.721.137-.759-.161.242-.275.622m222.877.489c.055.323.24 1.004.41 1.513s.272.698.227.42-.23-.958-.411-1.513-.282-.744-.226-.42M60.298 55.843c-.157.567-.256 1.061-.219 1.098s.197-.396.356-.962.257-1.059.219-1.097-.198.394-.356.961m55.905.61c-.515.675-.591.829-.251.511.422-.394 1.185-1.48 1.039-1.478-.028 0-.383.436-.788.967m12.802.239c-.208.57-.348 1.067-.311 1.104.092.092.796-1.818.736-1.997-.026-.079-.218.323-.425.893m-95.015-.366c0 .139.14.631.31 1.093s.31.727.31.589-.139-.631-.31-1.093-.31-.728-.31-.589m243.269 1.513c-.198.665-.328 1.241-.29 1.279s.232-.473.432-1.137.33-1.239.291-1.279-.235.472-.433 1.137m-205.688.449c-.151.528-.244.989-.208 1.025s.189-.365.342-.891.247-.986.208-1.025-.192.363-.342.891m42.77-.347c-.504.314-.841.571-.747.571.202 0 1.749-.963 1.749-1.089 0-.113.063-.146-1.002.518m193.748-.312c.361 1.271.683 2.213.738 2.158.088-.087-.619-2.452-.733-2.452-.048 0-.051.132-.005.294m-261.577.541c.058.32.208.85.335 1.177l.231.594-.105-.582a7.73 7.73 0 0 0-.336-1.177l-.23-.595.105.583m241.852 1.023c-.203.752-.337 1.399-.299 1.438s.238-.544.444-1.294.34-1.397.299-1.438-.24.541-.444 1.294m8.47-.429c.246 1.048.635 2.293.698 2.23.075-.075-.597-2.527-.727-2.65-.049-.046-.036.143.029.42M59.04 60.31c-.194.711-.323 1.322-.287 1.357.059.06.424-1.096.691-2.188.258-1.056-.08-.361-.404.831m68.372-.273c-.342.548-.588.997-.546.997.123 0 1.312-1.849 1.236-1.924-.038-.038-.349.379-.69.927m-92.209.282l.29 1.01c.113.394.236.686.273.649.086-.086-.453-1.953-.564-1.953-.046 0-.046.133.001.294m240.73 1.827c-.189.628-.313 1.172-.277 1.208s.224-.444.417-1.068.317-1.168.277-1.209-.229.44-.417 1.069m-205.55-.002c-.163.515-.266.968-.229 1.005s.2-.355.363-.871.265-.967.228-1.004-.2.354-.362.87m55.227.279c-.594.669-.796.952-.447.629.594-.552 1.709-1.852 1.585-1.848-.031.001-.543.549-1.138 1.219m183.656-.927c.361 1.271.683 2.213.738 2.158.088-.087-.619-2.452-.733-2.452-.048 0-.051.133-.005.294m-261.577.877c.058.32.208.85.335 1.177l.231.595-.105-.583c-.058-.32-.209-.85-.336-1.177l-.23-.594.105.582m239.507.948c-.204.704-.342 1.311-.305 1.348s.235-.509.44-1.214.342-1.311.305-1.348-.235.509-.44 1.214m11.005.151c.047.277.232.958.412 1.513s.29.782.243.505-.231-.959-.412-1.514-.289-.781-.243-.504M57.847 64.573c-.203.752-.337 1.4-.299 1.438s.238-.544.444-1.294.34-1.397.299-1.438-.241.541-.444 1.294m65.734-.324c-.586.514-.586.515-.047.156.298-.198.586-.432.641-.52.162-.263.027-.18-.594.364m-87.202-.062c.36 1.27.682 2.213.737 2.157.088-.087-.619-2.452-.733-2.452-.048 0-.05.133-.004.295m85.82.95c-.9.534-1.009.707-.184.292.386-.195.75-.432.808-.525.134-.216.127-.214-.624.233m152.451 1.19c-.245.803-.414 1.492-.374 1.531s.27-.587.512-1.392.412-1.495.374-1.532-.267.59-.512 1.393m35.775-1.047a52.21 52.21 0 0 1 .463 1.515c.212.719.419 1.273.459 1.233.096-.096-.778-2.959-.904-2.959-.053 0-.061.095-.018.211m-241.305.982c-.114.379-.176.721-.138.758s.162-.241.276-.621.175-.721.137-.759-.161.242-.275.622m50.342.181c-.462.181-.916.406-1.009.499-.168.169 1.44-.417 1.927-.702.424-.248-.019-.15-.918.203m107.356-.071c0 .07 4.691.127 10.425.127l10.424-.127c0-.069-4.691-.126-10.424-.126l-10.425.126m-177.78.709c.11.638.533 1.873.549 1.603.005-.092-.139-.622-.321-1.177s-.284-.746-.228-.426m236.891.689c-.159.566-.256 1.062-.215 1.102s.203-.389.362-.955.256-1.061.215-1.102-.203.389-.362.955m-166.899.746l1.368 2.522c.377.694.723 1.261.771 1.261.079 0-.636-1.372-2.081-3.993-.319-.578-.616-1.051-.661-1.051s.226.568.603 1.261m180.326-.841c.249 1.058.636 2.293.699 2.229.081-.08-.585-2.524-.721-2.646-.053-.048-.043.14.022.417M56.67 68.776c-.203.753-.337 1.4-.299 1.438s.238-.543.444-1.293.34-1.398.299-1.439-.24.542-.444 1.294m-19.127-.797c.046.12.216.69.378 1.265s.329 1.011.373.967c.101-.101-.607-2.451-.738-2.451-.053 0-.059.098-.013.219m60.727 1c-.044.115-.06 5.733-.036 12.484l.045 12.274.041-12.397.041-12.397 3.909-.049 3.909-.048-3.914-.039c-3.006-.03-3.934.01-3.995.172m8.28 1.046c.248.506.479.892.514.857.075-.075-.773-1.777-.886-1.777-.044 0 .124.414.372.92m166.859.358c-.205.704-.341 1.311-.304 1.349s.239-.505.447-1.207.345-1.308.304-1.349-.242.502-.447 1.207m38.332-1.026c-.006.092.175.735.402 1.429s.37 1.004.317.689c-.109-.637-.701-2.382-.719-2.118M67.872 70.394c-.151.528-.244.989-.208 1.025s.189-.365.342-.891.247-.986.208-1.025-.192.363-.342.891m-17.661.89c.058.321.208.85.335 1.177l.231.595-.105-.583c-.058-.32-.209-.85-.336-1.177l-.23-.594.105.582m234.641.319c-.107.358-.195.737-.195.842 0 .139 2.167.191 8.071.191h8.071l-.02-.379c-.015-.284-.038-.305-.096-.084-.084.322-15.857.472-15.857.151 0-.078.084-.385.187-.681s.153-.572.111-.614-.164.216-.272.574m-177.244.528c.28.555.547 1.009.594 1.009s-.146-.454-.426-1.009-.547-1.009-.593-1.009.145.454.425 1.009m-68.707.294c.36 1.271.682 2.213.737 2.158.088-.087-.619-2.452-.733-2.452-.048 0-.05.133-.004.294m16.586.572a32.92 32.92 0 0 1-.364 1.289c-.096.307-.14.594-.096.638s.239-.506.433-1.221.323-1.331.285-1.369-.154.261-.258.663m65.74-.429c0 .093.065.24.144.328s.502.841.941 1.673.875 1.589.971 1.682c.193.185-1.683-3.435-1.912-3.691-.09-.1-.144-.097-.144.008m77.19.465c.038.034.864.098 1.835.142s1.539.025 1.261-.042c-.515-.124-3.223-.211-3.096-.1m73.825 1.142c-.2.664-.331 1.239-.291 1.279s.234-.472.432-1.137.329-1.241.291-1.279-.233.474-.432 1.137m40.679-.969c-.028.252.675 2.494.756 2.412.042-.041-.108-.635-.332-1.319s-.415-1.176-.424-1.093M66.609 74.512c-.199.663-.33 1.239-.29 1.278s.234-.472.432-1.137.329-1.24.29-1.278-.232.473-.432 1.137M195.25 74c-.3.192-.546.422-.546.51s.283-.049.63-.304l.701-.513c.038-.027 0-.047-.084-.046s-.4.161-.701.353m8.834.246c.305.27.743.87.975 1.332s.373.652.316.42c-.149-.597-.928-1.684-1.424-1.986-.292-.178-.251-.107.133.234m-95.31.126c.185.487.85 1.589.851 1.411.001-.184-.828-1.802-.923-1.802-.042 0-.01.176.072.391M51.376 75.41c.046.277.231.958.411 1.513s.282.744.226.42-.24-1.004-.41-1.513-.272-.698-.227-.42m142.505.294c-.077.208-.191.832-.251 1.387l-.21 1.85c-.055.462-.055.798-.001.747s.18-.846.278-1.766.248-1.88.332-2.134c.183-.553.055-.626-.148-.084m-153.821.504c.044.116.208.654.364 1.196s.32.95.362.908c.097-.098-.582-2.314-.71-2.314-.052 0-.06.095-.016.21m70.238 1.135c.281.555.548 1.009.594 1.009s-.145-.454-.425-1.009-.548-1.008-.594-1.008.145.454.425 1.008m13.116-.796c-.001.167 1.018 1.973 1.112 1.973.04 0-.049-.236-.199-.524-.415-.804-.912-1.592-.913-1.449m147.573 1.754c-.243.805-.413 1.493-.378 1.528s.265-.593.51-1.396.415-1.491.377-1.528-.266.591-.509 1.396m-216.92-.275c-.159.566-.256 1.062-.215 1.103s.203-.39.362-.955.255-1.062.215-1.102-.203.389-.362.954m260.199-.448c-.028.251.675 2.493.756 2.412.042-.042-.107-.636-.332-1.319s-.415-1.176-.424-1.093M65.35 78.632c-.151.528-.244.99-.209 1.025s.19-.365.343-.89.247-.987.208-1.025-.192.363-.342.89m140.339.393c0 .693.03.977.066.63s.036-.914 0-1.261-.066-.063-.066.631m-94.55-.106c0 .182.668 1.451.764 1.451.046 0-.079-.322-.277-.715-.389-.773-.487-.92-.487-.736m14.124 1.115c.188.37.381.672.427.672s-.07-.302-.259-.672-.381-.673-.427-.673.07.303.259.673m-84.052-.269c-.028.252.887 3.19.942 3.025.028-.084-.169-.833-.437-1.665s-.496-1.443-.505-1.36m11.416-.002c0 .369.397 1.616.514 1.616.076 0 .018-.36-.128-.799-.265-.793-.386-1.05-.386-.817m122.175.691c.109.556.836 2.27.964 2.27.045 0-.111-.473-.346-1.051-.708-1.741-.726-1.777-.618-1.219m-62.031 1.677c.248.506.479.892.514.857.075-.075-.773-1.777-.886-1.777-.044 0 .124.414.372.92m156.949.283c-.2.664-.334 1.236-.298 1.272s.229-.477.43-1.139.336-1.234.298-1.272-.231.476-.43 1.139m45.723-.969c-.028.251.675 2.493.756 2.412.042-.042-.107-.635-.332-1.319s-.415-1.176-.424-1.093M64.087 82.75c-.199.664-.33 1.239-.291 1.279s.235-.472.433-1.137.329-1.24.29-1.279-.232.474-.432 1.137m62.437-.362c.234.462.464.84.51.84s-.108-.378-.342-.84-.464-.841-.51-.841.107.378.342.841m65.854.1c-.205.42-.304.723-.221.671.19-.117.749-1.28.659-1.37-.037-.037-.234.278-.438.699m89.525.095c-.147.734-.03.769.188.057.1-.324.122-.589.05-.589s-.18.239-.238.532m21.431-.439c.007.088.119.424.25.748l.238.588-.1-.588c-.09-.525-.422-1.165-.388-.748m-127.315 1.045c.446.832 2.739 2.733 3.291 2.728.097-.001-.206-.221-.674-.49s-1.293-.966-1.833-1.549-.893-.894-.784-.689m28.817 1.092c-.196.667-.329 1.241-.295 1.275s.227-.48.428-1.142.334-1.235.295-1.274-.231.475-.428 1.141m-91.007-.044c.28.555.547 1.009.594 1.009s-.145-.454-.426-1.009-.547-1.009-.593-1.009.145.454.425 1.009m13.872.336c.234.463.464.841.51.841s-.108-.378-.342-.841-.464-.84-.51-.84.107.378.342.84m63.295-.042l-.58.631.631-.58c.346-.318.63-.602.63-.63 0-.129-.142-.008-.681.579m-148.441-.396c-.027.252.675 2.493.756 2.412.042-.042-.107-.635-.331-1.319s-.415-1.176-.425-1.093m120.875.32c0 .215.708 1.989.769 1.927.035-.035-.092-.475-.283-.978-.333-.877-.486-1.176-.486-.949m117.545 1.396c-.205.705-.342 1.312-.305 1.349s.235-.51.44-1.214.342-1.312.305-1.349-.235.51-.44 1.214m23.186-1.051c0 .293.897 3.304.964 3.237.042-.042-.126-.781-.374-1.644-.409-1.42-.59-1.91-.59-1.593m-114.357.624c-.376.327-.377.336-.028.167.203-.098.416-.254.473-.346.165-.267-.016-.195-.445.179M62.832 86.876c-.242.805-.411 1.495-.374 1.532s.268-.59.513-1.393.414-1.492.374-1.532-.27.588-.513 1.393m205.617-.352c-.163.515-.265.968-.228 1.004s.2-.354.362-.87.266-.967.229-1.004-.201.354-.363.87m48.335-.715c-.024.278.545 2.04.604 1.869.033-.096-.086-.588-.266-1.093s-.331-.855-.338-.776m-187.906.95c.234.463.464.841.51.841s-.108-.378-.342-.841-.464-.841-.51-.841.107.379.342.841m-13.917-.378c.171.445.882 1.658.884 1.507.003-.18-.826-1.801-.92-1.801-.042 0-.026.132.036.294m72.345-.014c-1.148.302-4.448.35-5.788.085-.547-.108-1.026-.165-1.064-.127-.672.672 6.65.592 7.86-.087.343-.192.087-.159-1.008.129m16.428.649c-.249.506-.416.92-.372.92.113 0 .961-1.702.885-1.777-.034-.035-.265.351-.513.857m-39.127.331c0 .193.833 1.598.948 1.598.051 0-.115-.359-.368-.799-.533-.923-.58-.988-.58-.799M43.901 88.499c-.028.233.513 1.99.588 1.914.039-.038-.074-.517-.251-1.063s-.328-.93-.337-.851m72.619.95c.28.555.547 1.009.593 1.009s-.145-.454-.425-1.009-.547-1.008-.594-1.008.145.453.426 1.008m13.535-.504c.143.277.298.504.345.504s-.034-.227-.177-.504-.299-.504-.345-.504.033.227.177.504m72.46.126c-.164.254-.948 1.143-1.743 1.976-1.321 1.383-1.299 1.422.078.142.526-.489 2.092-2.363 2.092-2.503 0-.181-.148-.048-.427.385M61.637 90.808c-.253.842-.43 1.561-.393 1.598s.274-.622.526-1.464.428-1.561.392-1.598-.273.623-.525 1.464m218.071-.507c-.159.565-.256 1.061-.215 1.102s.203-.39.362-.955.255-1.062.215-1.102-.203.389-.362.955m-12.449.145c-.399 1.316-.284 2.273.391 3.253.489.711 2.347 2.142 2.777 2.138.105-.001-.187-.219-.65-.486-2.277-1.311-2.972-2.759-2.342-4.879.145-.488.233-.919.195-.956s-.205.381-.371.93m38.353-.498c.058.32.209.85.336 1.177l.23.594-.105-.582a7.61 7.61 0 0 0-.335-1.177l-.231-.595.105.583m-139.349.138c.208.292.464.584.571.65s.023-.119-.184-.411-.464-.583-.571-.649-.023.119.184.41m151.774-.132l.286 1.288c.161.724.149.981-.077 1.555-.328.834-.212.926.132.105.32-.768.289-1.501-.108-2.528-.179-.462-.284-.651-.233-.42m-200.676 1.107c.001.186.827 1.55.835 1.378.005-.113-.624-1.308-.77-1.462-.036-.039-.065-.001-.065.084m49.904.177c.093.174.342.467.553.651l.383.335-.375-.542c-.439-.631-.825-.937-.561-.444m1.293 1.224c.327.376 1.261 1.106 1.261.986 0-.033-.359-.356-.798-.717s-.648-.482-.463-.269m-123.485-.058c-.026.382.531 1.743.799 1.953.248.194.256.188.069-.053-.118-.15-.358-.679-.535-1.177s-.326-.822-.333-.723m85.101.627c-.418.788-1.13 1.602-2.137 2.447-.37.31-.504.478-.299.374.869-.439 3.153-3.184 2.878-3.459-.037-.037-.236.25-.442.638m68.481-.125c-.314.266-.372.365-.154.26.312-.149.879-.691.721-.689-.035 0-.29.193-.567.429m-79.697 1.251c.234.463.463.841.51.841s-.108-.378-.342-.841-.464-.84-.51-.84.107.378.342.84m51.157-.469c.199.239 1.554 1.046 1.554.925 0-.038-.392-.313-.872-.611s-.786-.439-.682-.314m108.496.446c-.097.357-.373.942-.616 1.299s-.312.542-.155.412c.333-.276.837-1.237.996-1.898.171-.712-.028-.547-.225.187m93.271.153c-.367 1.02-.254 1.133.13.129.161-.424.262-.803.223-.842s-.198.282-.353.713m-311.431-.088c-.175.301-.589.802-.919 1.113-.38.36-.463.497-.227.376.537-.276 1.845-2.035 1.513-2.035-.026 0-.191.246-.367.546m25.81-.369c-.012.473 1.339 2.009 1.766 2.009.068 0-.096-.169-.362-.375-.63-.486-.871-.774-1.16-1.391-.13-.277-.24-.387-.244-.243m110.376.334c-.462.272-.771.495-.687.496.185.002 1.612-.821 1.612-.93s.002-.111-.925.434m120.63.119l-.579.631.63-.58c.587-.539.708-.681.58-.681-.028 0-.312.284-.631.63m-219.328-.122c-.064.201-.43.678-.814 1.06-.654.652-.661.668-.109.258.593-.44 1.293-1.43 1.128-1.595-.049-.048-.141.076-.205.277m128.305.353c-.167.283-.651.735-1.075 1.004s-.692.489-.595.489c.487 0 2.276-1.706 2.038-1.943-.035-.036-.201.167-.368.45m118.645-.122c-.101.222-.472.615-.825.874-.919.673-1.064.837-.416.47.593-.335 1.539-1.309 1.539-1.585 0-.269-.104-.185-.298.241m-38.037-.043c0 1.418 2.474 2.67 4.805 2.431 1.034-.105 2.853-.569 2.728-.694-.037-.037-.43.042-.875.176-2.858.86-5.419.278-6.28-1.427-.208-.412-.378-.631-.378-.486m-58.707.264c1.019 1.903 6.035 2.859 8.637 1.647.304-.142.402-.212.217-.155-3.278 1.006-6.835.487-8.459-1.235-.336-.356-.507-.468-.395-.257m10.283.584c-.416.379-.605.61-.42.512.316-.167 1.409-1.224 1.25-1.209-.04.004-.414.318-.83.697M46.07 94.714c0 .029.246.275.546.547l.547.494-.494-.547c-.46-.509-.599-.624-.599-.494m288.189.341c.231.263.571.556.756.651.354.183.343.172-.588-.625l-.588-.503.42.477m-139.854.146c-.487.192-.859.376-.827.409.096.095 1.62-.46 1.724-.628.116-.188.169-.201-.897.219m121.488.032c-.899.535-1.008.708-.184.292.387-.195.751-.431.809-.525.133-.215.127-.213-.625.233m-143.384-.153c0 .088 1.15.595 1.324.583.135-.009-1.029-.649-1.197-.658-.07-.004-.127.03-.127.075m-52.374.73c.369.401.876.836 1.126.967.698.366.797.282.135-.115a9.57 9.57 0 0 1-1.261-.966l-.673-.614.673.728m33.484-.013c.042.161.229.483.414.714.326.407.325.397-.013-.294-.364-.746-.533-.923-.401-.42m-105.778.387c.129.209 1.948.855 2.161.767.103-.042.074-.085-.065-.094s-.686-.196-1.217-.414-.926-.335-.879-.259m46.821.171c-1.33.367-3.266.401-4.623.082-1.138-.268-1.462-.218-.479.073 1.641.487 4.581.375 5.961-.227.737-.322.495-.302-.859.072m31.525.175c-.554.272-.819.444-.588.384.499-.13 1.681-.712 1.681-.827 0-.101.094-.138-1.093.443m91.545-.258c1.296.6 3.919.707 5.613.229 1.002-.283.656-.317-.646-.063-1.781.346-3.258.251-5.213-.335-.185-.056-.074.02.246.169m53.806 0c1.476.684 4.76.672 5.657-.02.266-.204.215-.203-.315.01-1.318.531-3.292.468-5.631-.179-.162-.044-.032.041.289.189m64.703.004c1.487.65 5.08.685 6.051.06.265-.171.263-.178-.022-.089-1.549.488-4.031.487-5.643-.003-.965-.292-1.103-.281-.386.032m-278.738.192c-.416.147-.675.294-.576.327.192.064 1.417-.401 1.417-.538 0-.045-.019-.076-.042-.069s-.383.134-.799.28m118.705-.021c.417.131 1.06.273 1.43.316.377.044.119-.065-.589-.248-1.459-.378-1.945-.417-.841-.068m14.04.075c-.852.224-.971.283-.428.213.782-.101 2.295-.528 1.857-.525-.139.001-.782.142-1.429.312m180.259.566c-.465.793-2.112 2.558-3.126 3.349-.323.252-.437.387-.252.299.984-.468 4.203-4.03 3.908-4.324-.046-.046-.285.258-.53.676m-183.664.043a1.36 1.36 0 0 0 .589 0c.162-.042.029-.076-.295-.076s-.456.034-.294.076M51.492 97.3c.162.042.427.042.589 0s.029-.077-.295-.077-.456.034-.294.077m2.69 0c.162.042.427.042.589 0s.029-.077-.294-.077-.456.034-.295.077m68.937 0a1.39 1.39 0 0 0 .588 0c.162-.043.03-.077-.294-.077s-.456.034-.294.077m59.353.008c.624.033 1.645.033 2.269 0s.114-.058-1.134-.058-1.76.026-1.135.058m-27.488.645c.872 1.264 3.652 3.486 4.831 3.861.185.059-.06-.119-.544-.396a14.32 14.32 0 0 1-3.6-2.858c-.574-.618-.884-.891-.687-.607m210.548 3.518c-1.205.631-1.276.767-.14.269.651-.285 1.533-.851 1.317-.844-.047.002-.576.261-1.177.575m-203.661 1.086c1.177.509 4.053.522 101.601.475l99.201-.339c.417-.161.559-.256.318-.213a72.13 72.13 0 0 1-1.598.246c-1.585.23-196.08.231-197.711.002l-1.681-.249c-.439-.074-.456-.064-.13.078M7.605 107.272c0 .324.035.456.077.294a1.39 1.39 0 0 0 0-.588c-.042-.162-.077-.03-.077.294m.138 1.033c-.01.329.662 2.556.746 2.472.032-.032-.12-.664-.339-1.404s-.402-1.22-.407-1.068m384.076 1.118c-.199.713-.336 1.323-.304 1.356.09.093.788-2.303.724-2.487-.032-.091-.221.418-.42 1.131m-1.123 2.734c-.257.458-.428.832-.381.832.126 0 .995-1.516.915-1.596-.036-.037-.277.307-.534.764m-381.37.317c.141.271.332.541.425.598s.011-.164-.183-.494c-.426-.721-.6-.797-.242-.104m.778 1.121c.315.473 1.326 1.562 1.933 2.084.269.231-.036-.147-.678-.841-1.552-1.675-1.525-1.649-1.255-1.243m378.458 1.355c-.599.616-.897.975-.663.798.435-.329 1.942-1.919 1.819-1.919-.037 0-.558.504-1.156 1.121m-375.838 1.247c.208.252 1.231.896 1.231.775 0-.039-.321-.284-.714-.543s-.626-.364-.517-.232m374.077.248c-.313.266-.372.365-.154.261.312-.15.879-.692.721-.69-.034 0-.289.194-.567.429m-372.677.685c0 .122 1.86.948 1.944.864.041-.041-.38-.27-.935-.509s-1.009-.4-1.009-.355m370.66.417c-.555.272-.82.445-.589.384.499-.13 1.681-.711 1.681-.826 0-.101.094-.139-1.092.442M19 118.7c.435.085 68.283.154 159.604.161l158.851.139c.002.069.271.428.599.798l.596.673-.635-.883-.634-.883-158.644-.001-159.569-.077c-.922-.076-.922-.075-.168.073m358.343-.037l-3.236.05.041 19.878.041 19.879.044-19.798.043-19.799 2.984-.012c1.641-.007 3.324-.073 3.74-.147.644-.115.669-.132.169-.118l-3.826.067m-37.45 3.555c.729.947 1.4 1.767 1.492 1.824s-.431-.673-1.16-1.619-1.401-1.768-1.492-1.824.431.672 1.16 1.619m2.075 2.666c.306.393.594.715.638.715.132 0-.57-.933-.897-1.192-.164-.13-.048.084.259.477m1.176 1.52c.208.292.464.584.571.649s.023-.118-.184-.41-.464-.583-.571-.649-.023.119.184.41m.991 1.255l2.22 2.858c1.131 1.457 2.093 2.648 2.139 2.648s-.4-.624-.99-1.387l-2.214-2.858c-.627-.809-1.181-1.471-1.23-1.471s-.016.094.075.21m5.69 7.315c.714.948 1.416 1.818 1.559 1.933.293.236-1.534-2.165-2.337-3.069-.287-.324.063.187.778 1.136m2.068 2.704c.187.262.475.584.639.714s.048-.084-.258-.477c-.625-.8-.907-.976-.381-.237m1.177 1.513c.187.263.475.584.639.715s.048-.085-.259-.478c-.624-.8-.906-.976-.38-.237m1.177 1.513c.187.263.475.584.639.715s.048-.084-.259-.477c-.624-.801-.906-.977-.38-.238m1.177 1.514c.187.262.475.584.639.714s.048-.084-.259-.477c-.624-.8-.906-.977-.38-.237m.96 1.213c1.1 1.446 2.633 3.353 2.696 3.353.114 0-2.491-3.363-2.703-3.49-.113-.067-.111-.018.007.137m3.168 4.081c.259.34.505.617.547.617.116 0-.611-.983-.827-1.116-.105-.065.021.16.28.499m1.272 1.626c.293.37.57.673.617.673s-.156-.303-.449-.673-.57-.672-.617-.672.156.302.449.672m1.177 1.514c.293.369.57.672.617.672s-.156-.303-.449-.672-.571-.673-.617-.673.156.303.449.673m1.177 1.513c.293.37.57.672.617.672s-.156-.302-.449-.672-.571-.673-.617-.673.156.303.449.673m1.177 1.513c.293.37.57.673.617.673s-.156-.303-.449-.673-.571-.673-.617-.673.156.303.449.673m.989 1.318c.187.263.475.584.639.715s.048-.085-.258-.478c-.625-.8-.907-.976-.381-.237m1.596 2.003a33.03 33.03 0 0 0 1.455 1.723c.651.703.663.709.172.084-1.28-1.629-2.231-2.774-2.304-2.774-.043 0 .262.435.677.967m2.94 3.026c.321.301.664.547.761.547s-.009-.126-.238-.279-.571-.399-.762-.546-.083-.022.239.278" fill="#7c7c7c"/></svg>