<svg id="svg" version="1.1" xmlns="http://www.w3.org/2000/svg" xmlns:xlink="http://www.w3.org/1999/xlink" width="400" height="168.12439261418854" viewBox="0, 0, 400,168.12439261418854"><g id="svgg"><path id="path0" d="M17.318 0.183 C 15.853 0.371,13.115 1.028,13.115 1.192 C 13.115 1.264,12.945 1.371,12.736 1.430 C 11.921 1.662,10.256 2.412,10.256 2.547 C 10.256 2.626,10.179 2.690,10.085 2.690 C 9.848 2.690,8.599 3.516,7.987 4.076 C 7.709 4.330,7.429 4.539,7.363 4.539 C 7.187 4.540,4.372 7.331,4.372 7.504 C 4.372 7.587,4.164 7.878,3.909 8.151 C 3.655 8.425,3.366 8.802,3.266 8.990 C 2.920 9.647,2.605 10.161,2.433 10.351 C 2.337 10.457,2.037 11.103,1.765 11.787 C 1.493 12.471,1.229 13.069,1.177 13.115 C 0.964 13.306,0.487 15.193,0.249 16.781 C 0.027 18.269,0.001 24.068,0.043 63.758 L 0.090 109.037 0.542 110.849 C 0.790 111.845,1.110 112.778,1.253 112.921 C 1.396 113.064,1.513 113.279,1.513 113.400 C 1.513 113.701,2.302 115.462,2.470 115.535 C 2.545 115.568,2.833 116.030,3.111 116.561 C 3.388 117.092,3.671 117.527,3.739 117.528 C 3.807 117.528,4.047 117.812,4.273 118.159 C 4.768 118.921,6.041 120.257,7.037 121.059 C 7.439 121.383,7.895 121.764,8.051 121.906 C 8.207 122.048,8.635 122.343,9.002 122.560 C 9.368 122.778,9.938 123.135,10.269 123.355 C 10.599 123.574,11.318 123.912,11.866 124.104 C 12.414 124.297,12.901 124.517,12.949 124.594 C 13.072 124.793,15.547 125.422,16.688 125.544 C 17.219 125.600,17.654 125.712,17.654 125.791 C 17.654 125.871,87.845 125.935,175.460 125.935 L 333.266 125.935 333.846 126.499 C 334.165 126.809,334.426 127.117,334.426 127.185 C 334.426 127.311,336.819 130.429,337.444 131.116 C 337.639 131.329,337.988 131.806,338.221 132.175 C 338.454 132.543,338.754 132.887,338.889 132.939 C 339.024 132.991,339.134 133.106,339.134 133.194 C 339.134 133.376,339.826 134.319,340.521 135.085 C 340.776 135.365,340.984 135.690,340.984 135.807 C 340.984 135.925,341.138 136.116,341.327 136.232 C 341.516 136.349,341.859 136.765,342.091 137.158 C 342.322 137.551,342.582 137.873,342.668 137.873 C 342.754 137.873,342.934 138.081,343.067 138.335 C 343.200 138.590,343.451 138.949,343.625 139.134 C 343.799 139.319,344.247 139.887,344.622 140.395 C 344.997 140.904,345.429 141.424,345.582 141.551 C 345.735 141.678,345.860 141.881,345.860 142.003 C 345.860 142.126,345.996 142.324,346.164 142.445 C 346.331 142.566,346.713 143.024,347.012 143.464 C 347.312 143.903,347.629 144.262,347.717 144.262 C 347.805 144.262,347.877 144.339,347.877 144.433 C 347.877 144.589,349.568 146.853,350.140 147.463 C 350.273 147.605,350.568 147.995,350.795 148.330 C 351.214 148.947,351.457 149.245,352.291 150.167 C 352.545 150.448,352.753 150.714,352.753 150.760 C 352.753 150.889,353.623 152.030,354.137 152.575 C 354.393 152.847,354.603 153.168,354.603 153.288 C 354.603 153.409,354.757 153.602,354.946 153.719 C 355.135 153.835,355.477 154.249,355.706 154.638 C 355.935 155.028,356.216 155.406,356.330 155.479 C 356.444 155.552,356.764 155.952,357.041 156.368 C 357.318 156.784,357.633 157.182,357.742 157.252 C 357.850 157.322,358.113 157.662,358.325 158.009 C 358.538 158.355,358.884 158.776,359.095 158.945 C 359.306 159.113,359.479 159.340,359.480 159.449 C 359.480 159.558,359.746 159.950,360.072 160.319 C 361.224 161.630,361.475 161.937,361.530 162.101 C 361.624 162.384,364.739 165.448,364.932 165.448 C 365.032 165.448,365.202 165.588,365.309 165.759 C 365.416 165.930,365.869 166.241,366.316 166.451 C 366.763 166.660,367.167 166.882,367.213 166.943 C 368.380 168.487,375.469 168.380,377.173 166.792 C 377.371 166.608,377.596 166.456,377.673 166.456 C 377.877 166.456,379.655 164.739,379.655 164.541 C 379.655 164.449,379.836 164.180,380.057 163.944 C 380.278 163.707,380.633 163.022,380.846 162.421 C 381.059 161.820,381.285 161.290,381.347 161.244 C 381.770 160.928,381.841 158.236,381.841 142.441 C 381.841 127.881,381.871 125.935,382.093 125.935 C 382.232 125.935,382.346 125.870,382.346 125.791 C 382.346 125.712,382.781 125.600,383.312 125.544 C 384.533 125.414,386.951 124.785,387.025 124.578 C 387.056 124.492,387.179 124.422,387.299 124.422 C 387.593 124.422,389.429 123.605,389.744 123.335 C 389.882 123.216,390.337 122.938,390.754 122.719 C 391.170 122.500,391.674 122.169,391.872 121.984 C 392.070 121.799,392.561 121.383,392.963 121.059 C 393.840 120.353,394.990 119.176,395.591 118.369 C 395.832 118.045,396.112 117.705,396.214 117.612 C 396.315 117.520,396.615 117.066,396.881 116.604 C 397.147 116.141,397.421 115.725,397.489 115.679 C 397.659 115.564,398.487 113.673,398.487 113.400 C 398.487 113.279,398.590 113.077,398.717 112.950 C 399.042 112.626,399.460 111.094,399.750 109.168 C 400.132 106.636,400.123 19.014,399.741 16.646 C 399.494 15.115,399.020 13.292,398.823 13.115 C 398.771 13.069,398.507 12.471,398.235 11.787 C 397.963 11.103,397.663 10.460,397.567 10.358 C 397.472 10.256,397.211 9.832,396.986 9.416 C 396.762 9.000,396.365 8.437,396.104 8.165 C 395.842 7.893,395.628 7.603,395.628 7.521 C 395.628 7.330,392.678 4.372,392.488 4.372 C 392.410 4.372,392.158 4.201,391.928 3.993 C 391.377 3.496,390.133 2.690,389.915 2.690 C 389.821 2.690,389.744 2.626,389.744 2.547 C 389.744 2.396,387.779 1.512,387.444 1.513 C 387.335 1.513,387.141 1.409,387.014 1.282 C 386.718 0.985,384.358 0.406,382.518 0.177 C 380.777 -0.039,19.003 -0.033,17.318 0.183 M382.514 8.414 C 387.249 9.542,391.213 13.521,392.189 18.123 C 392.545 19.802,392.548 106.958,392.192 108.637 C 390.808 115.165,385.904 118.651,377.851 118.831 L 374.282 118.911 374.236 138.943 L 374.191 158.974 373.823 159.771 C 372.632 162.348,370.090 161.101,366.168 156.017 C 365.365 154.976,357.862 145.319,356.200 143.187 C 355.923 142.832,355.507 142.295,355.275 141.995 C 355.044 141.695,354.515 141.013,354.098 140.479 C 353.682 139.946,353.153 139.265,352.921 138.966 C 351.857 137.591,350.860 136.305,347.638 132.156 C 345.735 129.706,343.894 127.335,343.547 126.889 C 343.201 126.442,342.425 125.454,341.824 124.693 C 341.223 123.932,339.975 122.315,339.050 121.099 L 337.369 118.890 177.974 118.840 L 18.579 118.789 17.234 118.399 C 12.412 116.999,8.786 113.264,7.821 108.701 C 7.456 106.974,7.438 20.201,7.803 18.300 C 8.745 13.386,12.735 9.486,18.075 8.259 C 18.481 8.166,90.432 8.098,199.916 8.089 L 381.084 8.073 382.514 8.414 M162.589 23.289 C 157.711 24.288,153.717 28.231,152.761 32.990 C 152.381 34.885,152.366 90.969,152.745 92.773 C 153.827 97.915,158.031 101.874,163.236 102.652 C 166.127 103.085,361.283 102.933,362.926 102.497 C 367.515 101.280,371.094 97.659,372.258 93.056 C 372.595 91.724,372.599 91.363,372.554 62.457 L 372.509 33.207 371.897 31.575 C 370.418 27.636,367.245 24.644,363.262 23.430 C 361.923 23.023,164.569 22.884,162.589 23.289 M295.607 28.825 C 298.529 29.445,299.938 30.754,300.871 33.716 C 302.222 38.005,302.480 38.838,303.237 41.362 C 303.667 42.795,304.233 44.649,304.496 45.481 C 305.005 47.098,306.015 50.369,306.934 53.384 C 307.244 54.401,307.801 56.217,308.172 57.419 C 308.543 58.621,309.122 60.513,309.458 61.623 C 309.794 62.732,310.284 64.321,310.547 65.153 C 310.809 65.986,311.379 67.839,311.813 69.273 C 312.247 70.706,312.815 72.560,313.075 73.392 C 313.336 74.224,313.904 76.078,314.337 77.512 C 314.769 78.945,315.337 80.799,315.598 81.631 C 315.859 82.463,316.463 84.430,316.940 86.003 C 317.417 87.575,317.991 89.429,318.215 90.122 C 319.056 92.733,318.162 94.370,315.117 95.791 C 311.240 97.601,307.533 96.925,306.848 94.286 C 306.679 93.633,306.158 91.826,305.089 88.188 C 304.872 87.449,304.532 86.238,304.333 85.498 C 304.135 84.758,303.819 83.680,303.633 83.102 L 303.293 82.051 292.794 82.051 L 282.295 82.051 282.151 82.432 C 282.071 82.641,281.576 84.324,281.050 86.173 C 280.525 88.021,279.793 90.593,279.424 91.887 C 278.131 96.422,277.115 97.236,273.403 96.711 C 268.525 96.021,266.294 93.408,267.471 89.761 C 267.750 88.896,268.333 87.016,268.766 85.582 C 269.198 84.149,269.768 82.295,270.031 81.463 C 270.294 80.631,270.860 78.777,271.290 77.343 C 271.720 75.910,272.288 74.056,272.551 73.224 C 272.815 72.392,273.383 70.538,273.814 69.105 C 274.245 67.671,274.813 65.818,275.076 64.985 C 275.339 64.153,275.855 62.488,276.223 61.286 C 278.857 52.672,279.219 51.492,279.864 49.433 C 280.168 48.462,280.772 46.494,281.206 45.061 C 281.640 43.628,282.208 41.774,282.469 40.942 C 282.730 40.109,283.297 38.256,283.730 36.822 C 284.996 32.630,285.148 32.202,285.656 31.400 C 286.803 29.593,289.258 28.607,292.644 28.596 C 293.661 28.592,294.995 28.695,295.607 28.825 M33.497 29.275 C 30.424 29.732,27.672 31.726,27.455 33.653 C 27.372 34.384,27.527 34.977,29.090 39.933 C 29.352 40.765,29.919 42.619,30.349 44.052 C 30.779 45.485,31.345 47.339,31.606 48.172 C 31.867 49.004,32.435 50.858,32.868 52.291 C 33.301 53.724,33.870 55.578,34.132 56.410 C 34.394 57.243,34.884 58.831,35.222 59.941 C 35.913 62.214,36.901 65.431,37.752 68.180 C 38.067 69.197,38.635 71.051,39.014 72.299 C 39.394 73.548,39.918 75.250,40.179 76.082 C 40.440 76.915,41.008 78.768,41.442 80.202 C 41.875 81.635,42.444 83.489,42.704 84.321 C 42.965 85.153,43.532 87.007,43.965 88.441 C 45.460 93.392,45.716 94.076,46.342 94.808 C 49.338 98.308,58.007 98.017,60.350 94.338 C 60.619 93.915,61.026 92.926,61.254 92.140 C 61.482 91.354,62.067 89.424,62.552 87.852 C 63.038 86.280,63.603 84.426,63.808 83.733 C 64.013 83.039,64.579 81.185,65.064 79.613 C 65.550 78.041,66.117 76.187,66.325 75.494 C 66.534 74.800,67.100 72.947,67.583 71.375 C 68.645 67.923,69.512 65.087,70.024 63.388 C 70.234 62.694,70.673 61.257,71.000 60.193 C 71.328 59.130,71.988 56.974,72.467 55.401 C 72.947 53.829,73.607 51.673,73.935 50.609 C 74.263 49.546,74.794 47.806,75.114 46.742 C 75.694 44.819,76.300 42.826,77.453 39.051 C 78.881 34.374,78.896 34.311,78.782 33.547 C 78.341 30.608,72.291 28.152,69.002 29.577 C 67.890 30.059,67.520 30.587,67.025 32.397 C 66.649 33.773,65.557 37.667,64.370 41.866 C 64.096 42.837,63.658 44.426,63.398 45.397 C 62.959 47.033,62.688 47.988,61.373 52.543 C 61.106 53.468,60.536 55.511,60.105 57.083 C 59.675 58.655,59.146 60.546,58.930 61.286 C 58.714 62.026,58.185 63.918,57.754 65.490 C 57.324 67.062,56.795 68.953,56.580 69.693 C 56.365 70.433,55.759 72.589,55.235 74.485 C 54.710 76.381,54.140 78.386,53.968 78.941 C 53.795 79.496,53.572 80.271,53.471 80.664 C 53.212 81.670,53.043 81.559,52.704 80.160 C 52.541 79.489,52.302 78.638,52.173 78.268 C 52.044 77.898,51.640 76.499,51.275 75.158 C 50.598 72.671,50.030 70.644,48.756 66.162 C 48.361 64.775,47.795 62.770,47.497 61.707 C 47.199 60.643,46.681 58.789,46.344 57.587 C 46.008 56.385,45.429 54.342,45.058 53.047 C 44.687 51.753,44.121 49.748,43.800 48.592 C 43.479 47.436,42.904 45.393,42.523 44.052 C 41.110 39.084,40.676 37.541,40.254 35.982 C 38.473 29.406,37.709 28.648,33.497 29.275 M89.197 29.245 C 87.910 29.558,86.751 30.598,86.423 31.733 C 86.293 32.183,86.254 41.310,86.289 63.148 L 86.339 93.930 86.752 94.533 C 88.705 97.383,95.954 97.369,97.731 94.512 L 98.108 93.905 98.193 81.379 L 98.277 68.852 102.170 68.807 L 106.064 68.762 106.726 70.068 C 107.597 71.788,110.843 78.117,112.484 81.295 C 113.200 82.682,114.524 85.254,115.427 87.011 C 116.330 88.768,117.633 91.303,118.324 92.644 C 119.710 95.335,120.369 96.145,121.698 96.795 C 124.278 98.058,128.734 95.948,130.329 92.709 C 131.248 90.842,131.520 91.479,123.586 76.923 C 123.284 76.368,122.791 75.460,122.491 74.905 C 122.191 74.351,121.700 73.443,121.399 72.888 C 117.862 66.364,118.035 66.976,119.572 66.424 C 126.117 64.074,129.906 58.077,130.256 49.517 C 130.770 36.962,124.453 30.241,111.223 29.263 C 108.590 29.069,89.985 29.053,89.197 29.245 M187.756 29.267 C 198.942 30.794,205.662 37.282,205.683 46.574 C 205.693 51.222,204.406 52.534,199.832 52.537 C 195.258 52.541,193.924 51.550,193.533 47.855 C 192.959 42.431,189.856 39.691,184.279 39.685 C 179.101 39.679,176.239 41.669,174.834 46.252 L 174.452 47.499 174.397 62.295 C 174.339 77.988,174.375 78.899,175.119 80.952 C 176.565 84.939,179.349 86.649,184.363 86.632 C 190.234 86.612,192.904 84.080,193.537 77.932 C 193.903 74.373,195.175 73.263,199.159 73.026 C 204.333 72.718,206.274 75.075,205.646 80.904 C 204.526 91.304,195.156 97.896,182.346 97.294 C 170.461 96.735,163.537 90.510,162.427 79.385 C 162.199 77.100,162.195 49.464,162.422 47.066 C 163.614 34.491,173.767 27.358,187.756 29.267 M224.128 29.589 C 225.246 30.066,226.052 30.639,226.443 31.235 C 226.710 31.643,226.741 32.706,226.818 44.297 L 226.902 56.915 237.243 56.915 L 247.583 56.915 247.667 44.278 L 247.751 31.641 248.273 30.995 C 250.625 28.080,257.829 28.499,259.451 31.645 C 259.955 32.622,259.956 93.143,259.452 94.122 C 257.954 97.034,251.983 97.760,248.895 95.405 C 247.683 94.480,247.761 95.434,247.667 80.202 L 247.583 66.499 237.243 66.499 L 226.902 66.499 226.818 80.312 L 226.734 94.126 226.214 94.772 C 223.666 97.940,215.516 97.124,214.817 93.632 C 214.636 92.727,214.695 32.592,214.877 31.956 C 215.567 29.550,220.860 28.196,224.128 29.589 M360.199 29.320 C 363.448 30.714,363.533 37.902,360.319 39.618 C 359.779 39.907,359.147 39.940,352.585 40.017 L 345.439 40.101 345.355 67.094 C 345.262 97.147,345.377 94.451,344.139 95.395 C 340.833 97.917,334.306 96.863,333.418 93.664 C 333.311 93.280,333.251 83.537,333.250 66.549 L 333.249 40.034 326.061 39.983 C 319.676 39.938,318.815 39.901,318.352 39.647 C 315.302 37.976,315.114 31.560,318.058 29.610 L 318.847 29.088 339.252 29.088 C 356.234 29.088,359.748 29.127,360.199 29.320 M111.675 39.935 C 116.303 40.890,118.568 44.425,118.301 50.273 C 118.064 55.460,116.188 57.947,111.631 59.116 C 110.884 59.308,109.434 59.348,104.485 59.313 L 98.277 59.269 98.233 49.475 L 98.190 39.681 104.317 39.681 C 109.129 39.681,110.709 39.735,111.675 39.935 M292.565 44.965 C 292.470 45.215,292.392 45.486,292.392 45.568 C 292.392 45.649,292.210 46.306,291.988 47.028 C 291.766 47.749,291.154 49.891,290.628 51.786 C 290.101 53.682,289.493 55.839,289.275 56.578 C 289.057 57.318,288.303 59.966,287.599 62.463 C 286.895 64.960,286.101 67.760,285.835 68.684 C 285.155 71.048,284.826 72.251,284.826 72.367 C 284.826 72.422,288.382 72.467,292.728 72.467 C 297.950 72.467,300.631 72.410,300.631 72.297 C 300.631 72.204,300.472 71.579,300.279 70.910 C 300.085 70.241,299.714 68.937,299.453 68.012 C 299.193 67.087,298.625 65.082,298.192 63.556 C 297.424 60.849,297.061 59.570,295.593 54.393 C 293.947 48.590,293.714 47.762,293.297 46.238 C 292.786 44.369,292.789 44.374,292.565 44.965 " stroke="none" fill="#040404" fill-rule="evenodd"></path><path id="path1" d="M17.609 8.511 C 13.678 9.354,9.714 12.760,8.522 16.319 C 7.574 19.146,7.650 15.025,7.650 63.556 L 7.650 107.860 8.121 109.374 C 9.506 113.824,12.877 117.079,17.402 118.337 C 18.340 118.597,29.677 118.623,177.914 118.703 L 337.417 118.789 339.633 121.648 C 340.851 123.220,342.165 124.914,342.551 125.411 C 342.937 125.909,343.443 126.563,343.674 126.864 C 343.905 127.165,344.736 128.233,345.520 129.238 C 347.873 132.250,359.716 147.507,360.072 147.985 C 368.602 159.428,371.570 162.219,373.270 160.400 C 374.109 159.502,374.107 159.551,374.107 138.473 L 374.107 118.745 377.848 118.658 C 381.985 118.561,382.904 118.406,384.945 117.463 C 388.267 115.929,390.720 113.065,391.876 109.374 L 392.350 107.860 392.398 64.313 C 392.430 36.228,392.388 20.317,392.280 19.504 C 391.557 14.031,387.516 9.573,382.311 8.505 C 380.415 8.116,19.421 8.121,17.609 8.511 M363.430 23.346 C 367.948 24.862,371.178 28.209,372.380 32.619 C 372.835 34.289,372.841 91.419,372.386 93.188 C 371.262 97.558,368.194 100.812,363.744 102.352 L 361.917 102.984 263.472 103.032 C 193.166 103.066,164.624 103.028,163.617 102.897 C 158.168 102.189,153.486 97.808,152.501 92.495 C 152.209 90.923,152.282 34.286,152.577 33.039 C 153.782 27.946,157.560 24.271,162.842 23.055 C 163.248 22.961,202.789 22.910,262.884 22.925 L 362.253 22.951 363.430 23.346 M290.963 28.701 C 287.824 29.117,285.731 30.738,284.923 33.375 C 284.696 34.115,284.193 35.742,283.805 36.990 C 283.417 38.239,282.931 39.828,282.725 40.521 C 282.519 41.215,281.951 43.069,281.463 44.641 C 280.975 46.213,280.405 48.066,280.197 48.760 C 279.989 49.454,279.422 51.307,278.937 52.879 C 278.453 54.451,277.840 56.456,277.576 57.335 C 277.311 58.214,276.789 59.916,276.415 61.118 C 275.797 63.104,275.210 65.021,273.893 69.357 C 273.640 70.189,273.115 71.892,272.726 73.140 C 272.337 74.388,271.731 76.356,271.380 77.512 C 270.574 80.160,269.747 82.846,268.841 85.750 C 267.671 89.504,267.173 91.352,267.172 91.946 C 267.166 95.018,273.497 97.745,277.018 96.187 C 278.130 95.696,278.324 95.294,279.546 90.963 C 279.794 90.084,280.289 88.344,280.647 87.095 C 281.005 85.847,281.467 84.201,281.673 83.437 L 282.049 82.049 292.795 82.092 L 303.541 82.135 303.912 83.480 C 304.116 84.220,304.586 85.885,304.957 87.179 C 305.327 88.474,305.948 90.668,306.336 92.055 C 307.123 94.872,307.382 95.420,308.174 95.954 C 310.771 97.704,316.986 95.836,318.192 92.944 C 318.614 91.934,318.585 91.795,316.708 85.708 C 316.373 84.622,315.838 82.881,315.520 81.841 C 315.201 80.801,314.626 78.928,314.242 77.680 C 313.858 76.431,313.371 74.842,313.159 74.149 C 312.947 73.455,312.377 71.602,311.891 70.029 C 311.406 68.457,310.802 66.490,310.550 65.658 C 310.297 64.826,309.823 63.274,309.495 62.211 C 309.168 61.148,308.504 58.991,308.020 57.419 C 307.536 55.847,306.973 53.993,306.768 53.300 C 306.562 52.606,305.997 50.752,305.510 49.180 C 303.813 43.699,303.273 41.942,302.900 40.689 C 302.694 39.996,302.207 38.407,301.818 37.158 C 301.429 35.910,300.912 34.208,300.670 33.375 C 299.656 29.894,295.835 28.054,290.963 28.701 M37.444 29.522 C 38.599 30.081,38.859 30.545,39.702 33.557 C 40.088 34.937,40.646 36.936,40.942 37.999 C 41.239 39.063,41.804 41.068,42.198 42.455 C 43.154 45.816,43.929 48.565,44.640 51.114 C 44.962 52.270,45.530 54.275,45.902 55.570 C 46.273 56.864,46.841 58.869,47.163 60.025 C 47.486 61.181,48.008 63.035,48.324 64.145 C 49.327 67.671,50.307 71.146,50.862 73.140 C 52.099 77.589,52.788 79.988,53.005 80.603 L 53.236 81.256 53.770 79.258 C 54.063 78.159,54.614 76.162,54.993 74.821 C 55.372 73.480,55.978 71.324,56.340 70.029 C 57.383 66.302,58.178 63.458,58.761 61.370 C 59.059 60.307,59.624 58.302,60.017 56.915 C 60.927 53.708,61.757 50.736,62.459 48.172 C 62.762 47.062,63.166 45.624,63.356 44.977 C 63.546 44.330,63.976 42.816,64.312 41.614 C 67.727 29.388,67.399 30.322,68.502 29.676 C 71.342 28.011,77.128 29.719,78.591 32.655 C 79.163 33.803,79.153 33.919,78.246 36.884 C 77.817 38.283,77.296 39.996,77.087 40.689 C 76.879 41.383,76.311 43.237,75.825 44.809 C 75.339 46.381,74.774 48.235,74.569 48.928 C 74.364 49.622,73.798 51.475,73.312 53.047 C 72.826 54.620,72.213 56.625,71.949 57.503 C 71.341 59.531,70.722 61.555,69.612 65.153 C 69.126 66.726,68.515 68.731,68.253 69.609 C 67.990 70.488,67.464 72.228,67.082 73.476 C 66.392 75.737,65.884 77.401,64.569 81.715 C 64.189 82.963,63.578 84.968,63.211 86.171 C 62.844 87.373,62.284 89.227,61.965 90.290 C 60.730 94.411,60.437 94.953,58.916 95.926 C 57.230 97.004,55.201 97.439,52.481 97.305 C 48.058 97.088,46.036 95.692,44.948 92.106 C 44.303 89.980,43.527 87.457,42.632 84.573 C 42.301 83.510,41.732 81.656,41.367 80.454 C 40.379 77.203,39.822 75.384,38.844 72.215 C 38.359 70.643,37.792 68.789,37.584 68.096 C 37.376 67.402,36.808 65.549,36.323 63.976 C 35.837 62.404,35.270 60.551,35.062 59.857 C 34.854 59.164,34.284 57.310,33.795 55.738 C 33.307 54.166,32.739 52.312,32.533 51.618 C 32.328 50.925,31.841 49.336,31.452 48.087 C 31.064 46.839,30.457 44.872,30.105 43.716 C 29.752 42.560,29.179 40.706,28.831 39.596 C 27.276 34.640,27.199 34.299,27.415 33.304 C 28.078 30.236,34.173 27.938,37.444 29.522 M113.409 29.239 C 124.735 31.111,130.027 36.716,130.424 47.262 C 130.796 57.109,126.627 64.191,118.866 66.896 C 118.462 67.037,118.370 67.138,118.499 67.296 C 118.595 67.412,121.033 71.896,123.917 77.259 C 126.802 82.623,129.549 87.730,130.022 88.609 C 131.629 91.594,130.588 94.274,127.054 96.251 C 123.062 98.483,120.653 97.469,118.087 92.476 C 116.146 88.699,112.236 81.096,110.608 77.932 C 109.799 76.360,108.434 73.693,107.574 72.006 L 106.011 68.939 102.186 68.938 L 98.361 68.937 98.357 81.253 C 98.353 95.195,98.422 94.464,97.011 95.486 C 93.684 97.896,87.075 96.867,86.252 93.810 C 85.922 92.587,86.115 31.794,86.451 31.190 C 86.989 30.219,88.121 29.345,89.197 29.068 C 90.014 28.858,112.044 29.014,113.409 29.239 M179.235 29.499 C 169.510 30.896,163.843 36.736,162.663 46.574 C 162.371 49.014,162.317 76.620,162.599 79.385 C 163.777 90.934,171.154 97.184,183.607 97.184 C 197.024 97.184,206.074 89.467,205.593 78.435 C 205.428 74.634,204.211 73.423,200.336 73.202 C 195.890 72.948,194.088 74.191,193.713 77.772 C 193.048 84.111,190.181 86.836,184.195 86.816 C 178.869 86.799,175.540 84.313,174.616 79.662 C 174.237 77.750,174.231 48.786,174.610 46.804 C 175.517 42.067,178.715 39.633,184.027 39.638 C 190.261 39.643,192.992 42.098,193.779 48.402 C 194.176 51.590,195.728 52.557,200.248 52.433 C 204.156 52.326,205.441 51.090,205.598 47.288 C 205.961 38.437,199.601 31.482,189.491 29.677 C 187.318 29.289,181.411 29.186,179.235 29.499 M218.831 29.361 C 216.545 29.937,215.385 30.723,215.052 31.923 C 214.695 33.208,214.837 93.288,215.198 94.085 C 216.636 97.250,224.082 97.533,226.230 94.504 L 226.734 93.792 226.780 80.019 L 226.826 66.246 237.242 66.246 L 247.658 66.246 247.704 80.019 L 247.751 93.792 248.263 94.521 C 250.377 97.534,258.054 97.207,259.375 94.047 C 259.715 93.232,259.719 32.543,259.378 31.731 C 258.057 28.575,249.886 28.366,248.094 31.442 C 247.759 32.018,247.750 32.300,247.704 44.515 L 247.657 56.999 237.237 56.999 L 226.818 56.999 226.817 44.851 C 226.816 31.580,226.831 31.791,225.818 30.778 C 224.661 29.621,220.858 28.850,218.831 29.361 M318.251 29.600 C 315.902 30.840,315.334 36.178,317.297 38.560 C 318.378 39.871,318.221 39.849,326.262 39.849 L 333.412 39.849 333.457 66.793 C 333.499 91.963,333.521 93.772,333.792 94.268 C 335.546 97.472,343.552 97.355,345.028 94.104 C 345.338 93.423,345.348 92.563,345.351 66.625 L 345.355 39.849 352.422 39.849 C 360.056 39.849,360.084 39.846,361.035 38.933 C 363.527 36.541,362.931 30.505,360.098 29.435 C 359.096 29.056,318.981 29.214,318.251 29.600 M98.361 49.429 L 98.361 59.209 104.960 59.147 C 112.412 59.076,112.713 59.032,114.786 57.692 C 119.716 54.505,119.331 43.555,114.197 40.958 C 111.991 39.842,111.632 39.795,104.708 39.719 L 98.361 39.650 98.361 49.429 M294.232 49.096 C 294.709 50.807,295.353 53.077,295.663 54.140 C 295.974 55.204,296.542 57.209,296.927 58.596 C 297.312 59.983,297.931 62.177,298.302 63.472 C 300.108 69.769,300.799 72.261,300.799 72.475 C 300.799 72.575,297.745 72.636,292.728 72.636 C 283.923 72.636,284.448 72.699,284.839 71.680 C 284.938 71.419,285.278 70.261,285.593 69.105 C 285.908 67.949,286.469 65.944,286.840 64.649 C 287.211 63.354,287.779 61.349,288.102 60.193 C 288.425 59.037,288.993 57.032,289.363 55.738 C 290.481 51.830,291.388 48.610,291.922 46.658 C 292.788 43.493,292.619 43.315,294.232 49.096 M387.608 127.616 C 386.852 127.775,386.267 128.043,385.923 128.387 C 385.806 128.504,385.521 128.748,385.290 128.930 C 384.222 129.770,383.678 132.489,384.200 134.371 C 384.381 135.023,385.761 136.696,386.118 136.696 C 386.234 136.696,386.498 136.843,386.705 137.022 C 387.372 137.600,390.388 137.688,390.963 137.146 C 391.078 137.037,391.371 136.846,391.612 136.722 C 392.340 136.347,392.875 135.758,393.265 134.901 C 393.469 134.455,393.705 133.959,393.791 133.798 C 394.002 133.403,393.992 131.148,393.779 131.148 C 393.686 131.148,393.611 131.033,393.611 130.892 C 393.611 130.389,392.764 129.031,392.268 128.737 C 391.989 128.573,391.761 128.375,391.761 128.298 C 391.761 127.805,388.923 127.338,387.608 127.616 M389.966 128.806 C 392.151 129.413,393.299 132.134,392.225 134.162 C 391.703 135.148,391.577 135.154,391.134 134.213 C 390.614 133.107,390.614 132.974,391.134 132.458 C 392.613 130.993,391.312 129.634,388.430 129.634 L 386.549 129.634 386.549 132.493 L 386.549 135.351 387.306 135.351 L 388.062 135.351 388.062 134.258 L 388.062 133.165 388.551 133.165 C 389.001 133.165,389.072 133.253,389.433 134.258 L 389.825 135.351 390.567 135.351 L 391.309 135.351 390.825 135.767 C 389.989 136.485,387.737 136.539,387.054 135.856 C 386.883 135.685,386.593 135.464,386.410 135.367 C 386.227 135.269,385.881 134.794,385.641 134.312 C 384.135 131.290,386.780 127.921,389.966 128.806 M389.713 130.993 C 390.037 131.511,389.695 131.820,388.798 131.820 C 388.069 131.820,388.062 131.815,388.062 131.232 C 388.062 130.498,389.293 130.320,389.713 130.993 " stroke="none" fill="#fbfbfb" fill-rule="evenodd"></path><path id="path2" d="M18.252 8.217 C 17.980 8.275,99.767 8.323,200.000 8.323 C 300.233 8.323,382.020 8.275,381.748 8.217 C 381.475 8.158,299.689 8.110,200.000 8.110 C 100.311 8.110,18.525 8.158,18.252 8.217 M14.838 9.326 C 14.353 9.552,13.955 9.774,13.955 9.819 C 13.955 9.892,15.784 9.118,15.959 8.970 C 16.176 8.788,15.605 8.968,14.838 9.326 M384.545 9.143 C 384.717 9.298,386.045 9.918,386.045 9.843 C 386.045 9.747,384.776 9.079,384.594 9.079 C 384.529 9.079,384.507 9.108,384.545 9.143 M12.989 10.413 C 12.614 10.685,12.246 11.006,12.171 11.128 C 12.059 11.309,13.066 10.602,13.695 10.058 C 14.076 9.729,13.612 9.962,12.989 10.413 M386.213 9.965 C 386.213 10.008,386.534 10.254,386.927 10.511 C 387.320 10.768,388.206 11.553,388.895 12.256 C 389.644 13.021,389.924 13.244,389.589 12.813 C 388.814 11.810,386.213 9.617,386.213 9.965 M11.165 11.980 C 10.434 12.753,10.007 13.283,10.114 13.283 C 10.151 13.283,10.581 12.829,11.070 12.274 C 12.096 11.108,12.152 10.934,11.165 11.980 M9.545 13.997 C 9.177 14.565,8.848 15.240,9.032 15.048 C 9.268 14.803,9.961 13.619,9.869 13.619 C 9.826 13.619,9.680 13.789,9.545 13.997 M390.429 14.208 C 390.636 14.578,390.878 14.956,390.967 15.048 C 391.218 15.312,390.643 14.247,390.330 13.871 C 390.177 13.686,390.221 13.838,390.429 14.208 M8.096 17.013 C 7.999 17.319,7.877 17.873,7.825 18.243 C 7.763 18.687,7.848 18.522,8.075 17.758 C 8.415 16.610,8.434 15.943,8.096 17.013 M391.705 16.867 C 391.759 17.127,391.908 17.657,392.037 18.044 L 392.270 18.747 392.169 18.080 C 392.114 17.713,391.965 17.183,391.838 16.903 L 391.607 16.393 391.705 16.867 M392.305 19.504 C 392.305 19.828,392.339 19.960,392.382 19.798 C 392.424 19.636,392.424 19.372,392.382 19.210 C 392.339 19.048,392.305 19.180,392.305 19.504 M7.605 19.672 C 7.605 19.996,7.640 20.128,7.682 19.966 C 7.724 19.805,7.724 19.540,7.682 19.378 C 7.640 19.216,7.605 19.348,7.605 19.672 M162.673 23.128 C 162.211 23.255,162.060 23.308,162.337 23.246 C 163.206 23.053,360.606 23.007,361.833 23.199 C 362.434 23.294,363.115 23.408,363.346 23.453 C 363.577 23.499,363.426 23.404,363.010 23.243 C 361.975 22.843,164.130 22.730,162.673 23.128 M364.369 23.772 C 364.540 23.928,366.541 24.880,366.541 24.805 C 366.541 24.711,364.598 23.707,364.416 23.707 C 364.351 23.707,364.330 23.736,364.369 23.772 M159.353 24.223 C 159.006 24.406,158.722 24.594,158.722 24.640 C 158.722 24.715,160.050 24.094,160.221 23.939 C 160.415 23.764,159.910 23.929,159.353 24.223 M367.129 25.248 C 368.187 26.049,369.748 27.653,370.354 28.562 C 371.147 29.751,371.363 29.995,371.019 29.314 C 370.369 28.025,368.046 25.574,366.961 25.033 C 366.776 24.941,366.852 25.038,367.129 25.248 M157.279 25.653 L 156.620 26.254 157.335 25.709 C 157.988 25.211,158.147 25.053,157.994 25.053 C 157.963 25.053,157.641 25.323,157.279 25.653 M155.937 26.776 L 155.443 27.322 155.990 26.829 C 156.290 26.557,156.536 26.311,156.536 26.282 C 156.536 26.152,156.398 26.267,155.937 26.776 M33.185 29.158 C 32.525 29.283,31.844 29.476,31.672 29.586 C 31.369 29.779,31.369 29.782,31.681 29.683 C 35.731 28.398,38.324 29.288,39.168 32.255 C 39.384 33.014,39.593 33.603,39.633 33.563 C 39.757 33.439,38.991 31.047,38.647 30.483 C 37.914 29.283,35.551 28.710,33.185 29.158 M70.097 29.083 C 69.360 29.214,68.264 29.675,68.264 29.853 C 68.264 29.899,68.497 29.817,68.783 29.669 C 69.939 29.071,71.511 29.021,73.981 29.506 C 74.212 29.552,74.086 29.483,73.701 29.353 C 72.771 29.040,71.054 28.911,70.097 29.083 M89.197 29.076 C 87.857 29.399,86.234 30.912,86.261 31.812 C 86.265 31.932,86.383 31.765,86.523 31.442 C 86.854 30.677,87.517 29.988,88.356 29.535 C 89.478 28.930,108.873 28.912,114.250 29.511 L 114.922 29.586 114.334 29.427 C 112.690 28.984,90.842 28.679,89.197 29.076 M288.455 29.258 C 288.000 29.436,287.546 29.668,287.446 29.775 C 287.320 29.910,287.387 29.906,287.664 29.763 C 287.884 29.650,288.452 29.419,288.925 29.251 C 289.398 29.082,289.672 28.942,289.533 28.940 C 289.395 28.937,288.909 29.081,288.455 29.258 M296.669 29.260 C 297.126 29.438,297.527 29.558,297.559 29.525 C 297.639 29.445,296.304 28.918,296.045 28.928 C 295.932 28.932,296.212 29.081,296.669 29.260 M179.319 29.335 L 178.142 29.561 179.403 29.451 C 181.039 29.307,186.336 29.308,188.062 29.452 C 189.102 29.539,189.254 29.527,188.735 29.401 C 187.597 29.124,180.669 29.075,179.319 29.335 M218.663 29.193 C 217.936 29.377,217.214 29.629,217.266 29.680 C 217.296 29.711,217.774 29.629,218.328 29.498 C 219.629 29.192,222.120 29.190,223.292 29.494 C 224.343 29.767,224.575 29.730,223.758 29.421 C 223.199 29.210,219.290 29.035,218.663 29.193 M251.225 29.287 C 250.824 29.377,250.529 29.484,250.570 29.525 C 250.611 29.566,251.047 29.513,251.540 29.407 C 252.395 29.224,255.461 29.277,256.410 29.492 C 256.641 29.544,256.528 29.480,256.158 29.350 C 255.378 29.076,252.344 29.037,251.225 29.287 M318.411 29.352 C 317.788 29.690,317.818 29.837,318.445 29.513 C 319.065 29.192,359.255 29.117,360.098 29.434 C 360.760 29.684,361.572 30.509,361.924 31.290 C 362.088 31.653,362.253 31.918,362.291 31.880 C 362.604 31.567,360.940 29.584,360.098 29.266 C 359.268 28.953,318.993 29.036,318.411 29.352 M153.670 29.945 C 153.476 30.324,153.347 30.663,153.382 30.698 C 153.418 30.733,153.611 30.423,153.812 30.009 C 154.270 29.066,154.147 29.010,153.670 29.945 M249.054 30.254 C 248.680 30.525,248.316 30.847,248.245 30.968 C 248.175 31.090,248.300 31.027,248.523 30.829 C 248.746 30.631,249.193 30.309,249.517 30.115 C 249.840 29.921,250.022 29.761,249.920 29.761 C 249.818 29.761,249.429 29.982,249.054 30.254 M298.648 30.254 C 298.991 30.545,299.502 31.062,299.783 31.403 C 300.064 31.744,300.294 31.965,300.294 31.893 C 300.294 31.690,298.750 30.091,298.368 29.898 C 298.179 29.803,298.305 29.963,298.648 30.254 M30.024 30.292 C 29.285 30.682,27.575 32.316,27.575 32.633 C 27.575 32.745,27.795 32.533,28.064 32.162 C 28.577 31.453,29.088 31.038,30.295 30.348 C 31.173 29.846,30.955 29.801,30.024 30.292 M67.806 30.139 C 67.478 30.564,67.366 30.825,67.565 30.702 C 67.764 30.579,68.162 29.929,68.038 29.929 C 68.000 29.929,67.896 30.023,67.806 30.139 M75.340 29.983 C 75.654 30.227,77.175 31.084,77.175 31.016 C 77.175 30.894,75.629 29.929,75.433 29.929 C 75.343 29.929,75.301 29.953,75.340 29.983 M225.272 30.290 C 225.577 30.486,226.012 30.918,226.239 31.251 C 226.465 31.584,226.650 31.750,226.650 31.620 C 226.650 31.333,225.213 29.927,224.923 29.931 C 224.810 29.933,224.966 30.094,225.272 30.290 M286.572 30.345 C 286.285 30.572,285.921 30.968,285.764 31.226 L 285.479 31.694 285.889 31.212 C 286.115 30.946,286.516 30.552,286.781 30.335 C 287.423 29.810,287.240 29.818,286.572 30.345 M317.147 30.391 C 316.712 31.020,316.570 31.274,316.655 31.274 C 316.695 31.274,316.927 30.971,317.172 30.601 C 317.670 29.849,317.648 29.668,317.147 30.391 M118.440 30.517 C 119.081 30.747,119.632 30.907,119.666 30.873 C 119.761 30.778,118.526 30.319,117.865 30.202 C 117.541 30.146,117.800 30.287,118.440 30.517 M174.310 30.548 C 173.683 30.786,173.197 31.008,173.230 31.042 C 173.264 31.075,173.891 30.880,174.624 30.608 C 175.357 30.336,175.843 30.114,175.704 30.114 C 175.565 30.115,174.938 30.310,174.310 30.548 M191.867 30.175 C 191.997 30.305,194.096 30.929,194.166 30.858 C 194.202 30.822,193.725 30.636,193.105 30.445 C 191.944 30.086,191.733 30.040,191.867 30.175 M215.669 30.737 C 215.325 31.089,214.969 31.637,214.878 31.955 C 214.696 32.589,214.635 92.723,214.816 93.624 C 214.930 94.198,215.885 95.404,216.450 95.690 C 216.650 95.791,216.520 95.625,216.162 95.321 C 214.766 94.141,214.888 97.224,214.884 62.967 C 214.880 30.250,214.835 31.762,215.837 30.737 C 216.180 30.385,216.424 30.097,216.378 30.097 C 216.331 30.097,216.012 30.385,215.669 30.737 M258.587 30.665 C 258.906 31.000,259.193 31.274,259.225 31.274 C 259.368 31.274,258.647 30.445,258.344 30.261 C 258.159 30.148,258.268 30.330,258.587 30.665 M371.426 30.265 C 371.426 30.311,371.646 30.954,371.916 31.694 C 372.462 33.190,372.612 33.214,372.099 31.724 C 371.805 30.868,371.428 30.050,371.426 30.265 M77.823 31.743 C 78.030 32.034,78.287 32.326,78.393 32.392 C 78.500 32.458,78.417 32.273,78.209 31.982 C 78.002 31.690,77.745 31.398,77.639 31.332 C 77.532 31.267,77.615 31.451,77.823 31.743 M120.737 31.328 C 120.994 31.528,122.741 32.438,122.741 32.371 C 122.741 32.262,121.017 31.277,120.821 31.275 C 120.736 31.274,120.698 31.298,120.737 31.328 M171.795 31.705 C 171.356 31.934,170.996 32.158,170.996 32.204 C 170.996 32.250,171.375 32.096,171.837 31.862 C 172.299 31.628,172.678 31.400,172.678 31.355 C 172.678 31.244,172.693 31.238,171.795 31.705 M195.558 31.504 C 195.731 31.659,196.721 32.114,196.721 32.039 C 196.721 31.942,195.789 31.442,195.609 31.442 C 195.542 31.442,195.520 31.470,195.558 31.504 M152.595 32.984 C 152.225 34.658,152.270 92.284,152.642 93.374 C 152.965 94.323,153.014 94.058,152.747 92.810 C 152.387 91.134,152.394 34.749,152.754 33.051 C 152.890 32.410,152.970 31.855,152.933 31.818 C 152.897 31.781,152.744 32.306,152.595 32.984 M259.521 62.884 C 259.521 79.974,259.576 93.870,259.644 93.763 C 259.712 93.656,259.768 79.760,259.768 62.884 C 259.768 46.007,259.712 32.111,259.644 32.004 C 259.576 31.898,259.521 45.793,259.521 62.884 M66.599 33.392 C 66.395 34.097,66.257 34.704,66.294 34.741 C 66.331 34.778,66.529 34.231,66.734 33.527 C 66.939 32.822,67.076 32.215,67.039 32.178 C 67.002 32.141,66.804 32.688,66.599 33.392 M86.169 62.884 C 86.169 79.760,86.189 86.665,86.213 78.226 C 86.237 69.788,86.237 55.979,86.213 47.541 C 86.189 39.103,86.169 46.007,86.169 62.884 M197.551 32.584 C 198.112 33.043,199.075 33.588,198.739 33.256 C 198.600 33.119,198.184 32.836,197.814 32.628 C 197.247 32.309,197.206 32.302,197.551 32.584 M122.909 32.497 C 122.909 32.532,123.268 32.816,123.707 33.126 C 124.147 33.436,124.379 33.544,124.223 33.365 C 123.951 33.051,122.909 32.363,122.909 32.497 M169.399 33.240 C 168.124 34.237,166.729 35.677,166.091 36.654 L 165.597 37.411 166.069 36.833 C 167.644 34.904,168.293 34.257,169.997 32.921 C 170.315 32.671,170.538 32.463,170.492 32.459 C 170.446 32.454,169.954 32.806,169.399 33.240 M284.684 33.654 C 284.484 34.318,284.350 34.890,284.386 34.926 C 284.422 34.961,284.616 34.449,284.817 33.787 C 285.018 33.125,285.152 32.553,285.115 32.515 C 285.077 32.478,284.883 32.991,284.684 33.654 M316.036 32.976 C 315.905 33.634,315.928 35.600,316.074 36.118 C 316.134 36.331,316.183 35.593,316.183 34.478 C 316.183 32.229,316.184 32.237,316.036 32.976 M78.773 34.048 C 78.773 34.642,78.824 34.999,78.887 34.840 C 78.950 34.682,79.001 34.325,79.001 34.048 C 79.001 33.770,78.950 33.414,78.887 33.256 C 78.824 33.097,78.773 33.454,78.773 34.048 M300.647 33.181 C 300.620 33.414,301.160 35.172,301.236 35.096 C 301.274 35.058,301.161 34.579,300.985 34.033 C 300.808 33.486,300.657 33.103,300.647 33.181 M200.119 34.456 C 200.646 34.933,201.441 35.720,201.884 36.204 C 202.327 36.688,202.580 36.930,202.444 36.743 C 201.994 36.118,200.175 34.280,199.664 33.932 C 199.386 33.743,199.591 33.979,200.119 34.456 M125.860 35.015 C 126.498 35.731,127.048 36.318,127.081 36.318 C 127.210 36.318,126.092 35.019,125.415 34.384 C 125.021 34.014,125.221 34.298,125.860 35.015 M372.676 62.968 C 372.676 78.596,372.695 84.965,372.720 77.120 C 372.744 69.275,372.744 56.488,372.720 48.705 C 372.695 40.921,372.676 47.339,372.676 62.968 M27.592 35.377 C 27.563 35.628,28.478 38.567,28.533 38.401 C 28.561 38.317,28.365 37.568,28.097 36.737 C 27.828 35.905,27.601 35.293,27.592 35.377 M40.291 36.144 C 40.348 36.464,40.499 36.994,40.626 37.321 L 40.857 37.915 40.752 37.333 C 40.694 37.012,40.543 36.483,40.416 36.156 L 40.186 35.561 40.291 36.144 M127.465 37.116 C 128.062 38.107,128.289 38.422,128.289 38.261 C 128.289 38.082,127.279 36.486,127.165 36.486 C 127.121 36.486,127.256 36.770,127.465 37.116 M65.254 38.183 C 65.048 38.933,64.910 39.578,64.948 39.615 C 64.985 39.652,65.184 39.069,65.390 38.319 C 65.595 37.569,65.733 36.925,65.695 36.888 C 65.658 36.850,65.459 37.433,65.254 38.183 M283.413 37.764 C 283.251 38.279,283.148 38.732,283.185 38.769 C 283.222 38.806,283.385 38.414,283.548 37.898 C 283.710 37.383,283.813 36.931,283.776 36.894 C 283.739 36.857,283.576 37.248,283.413 37.764 M77.769 37.921 C 77.408 39.164,77.530 39.287,77.915 38.066 C 78.078 37.551,78.174 37.092,78.129 37.047 C 78.084 37.002,77.922 37.395,77.769 37.921 M301.834 37.158 C 301.834 37.297,301.973 37.789,302.144 38.251 C 302.314 38.714,302.454 38.979,302.454 38.840 C 302.454 38.701,302.314 38.209,302.144 37.747 C 301.973 37.285,301.834 37.020,301.834 37.158 M361.808 37.841 C 361.565 38.296,361.435 38.626,361.518 38.574 C 361.699 38.463,362.385 37.150,362.305 37.070 C 362.274 37.039,362.050 37.386,361.808 37.841 M164.948 38.377 C 164.537 39.094,164.252 39.799,164.495 39.498 C 164.709 39.234,165.622 37.495,165.547 37.495 C 165.496 37.495,165.227 37.892,164.948 38.377 M203.653 38.783 C 203.956 39.354,204.228 39.796,204.257 39.767 C 204.331 39.693,203.701 38.494,203.372 38.083 C 203.224 37.898,203.351 38.213,203.653 38.783 M316.905 38.251 C 317.236 38.890,318.679 40.015,318.893 39.801 C 318.935 39.760,318.736 39.630,318.452 39.512 C 318.168 39.394,317.664 38.987,317.333 38.606 C 317.002 38.226,316.809 38.066,316.905 38.251 M360.724 39.201 C 360.405 39.559,360.406 39.560,360.782 39.363 C 360.990 39.254,361.160 39.091,361.160 39.002 C 361.160 38.763,361.080 38.800,360.724 39.201 M128.645 39.260 C 128.648 39.353,128.796 39.731,128.974 40.101 C 129.152 40.471,129.250 40.584,129.193 40.353 C 129.074 39.877,128.636 39.003,128.645 39.260 M183.733 39.631 C 183.941 39.671,184.281 39.671,184.489 39.631 C 184.697 39.591,184.527 39.558,184.111 39.558 C 183.695 39.558,183.525 39.591,183.733 39.631 M28.932 39.739 C 28.908 40.017,29.477 41.779,29.536 41.608 C 29.569 41.512,29.450 41.021,29.270 40.515 C 29.091 40.010,28.939 39.660,28.932 39.739 M98.275 49.475 L 98.277 59.269 104.918 59.267 C 109.949 59.266,111.661 59.214,111.980 59.052 L 112.400 58.839 111.980 58.955 C 111.749 59.019,108.590 59.103,104.961 59.140 L 98.363 59.209 98.318 49.445 L 98.272 39.681 98.275 49.475 M110.004 39.796 C 110.166 39.839,110.431 39.839,110.593 39.796 C 110.755 39.754,110.622 39.720,110.298 39.720 C 109.975 39.720,109.842 39.754,110.004 39.796 M41.376 39.933 C 41.371 40.025,41.515 40.555,41.696 41.110 C 41.878 41.665,41.981 41.856,41.925 41.536 C 41.814 40.898,41.391 39.663,41.376 39.933 M326.314 39.975 L 333.249 40.021 333.250 66.542 C 333.251 92.614,333.279 94.116,333.777 94.424 C 333.875 94.484,333.853 94.355,333.728 94.135 C 333.541 93.806,333.494 89.040,333.457 66.793 L 333.412 39.849 326.395 39.889 L 319.378 39.929 326.314 39.975 M345.355 39.975 C 345.355 40.090,350.584 40.087,356.789 39.969 C 358.129 39.944,356.106 39.906,352.291 39.886 C 348.476 39.865,345.355 39.905,345.355 39.975 M112.756 40.348 C 113.230 40.516,113.787 40.745,113.996 40.857 C 114.212 40.972,114.328 40.985,114.267 40.885 C 114.147 40.692,112.420 40.010,112.100 40.029 C 111.987 40.036,112.283 40.179,112.756 40.348 M163.777 40.952 C 163.580 41.479,163.447 41.940,163.483 41.976 C 163.519 42.011,163.708 41.608,163.903 41.078 C 164.098 40.549,164.230 40.088,164.196 40.055 C 164.163 40.021,163.974 40.425,163.777 40.952 M188.155 40.261 C 188.484 40.382,189.071 40.643,189.459 40.841 C 189.847 41.039,190.164 41.158,190.164 41.106 C 190.164 40.961,188.097 40.015,187.810 40.029 C 187.671 40.035,187.827 40.140,188.155 40.261 M179.109 40.517 C 178.716 40.695,178.394 40.878,178.394 40.924 C 178.394 41.000,179.903 40.388,180.062 40.247 C 180.244 40.086,179.753 40.224,179.109 40.517 M204.565 40.689 C 205.088 42.499,205.448 43.596,205.455 43.404 C 205.471 43.006,204.941 41.135,204.687 40.694 L 204.443 40.269 204.565 40.689 M282.236 41.631 C 282.074 42.147,281.971 42.599,282.008 42.636 C 282.045 42.673,282.208 42.281,282.371 41.765 C 282.533 41.250,282.636 40.798,282.599 40.761 C 282.562 40.724,282.399 41.115,282.236 41.631 M76.592 41.788 C 76.440 42.313,76.346 42.774,76.384 42.813 C 76.423 42.851,76.577 42.450,76.727 41.922 C 76.877 41.394,76.971 40.933,76.935 40.898 C 76.899 40.862,76.745 41.262,76.592 41.788 M303.011 41.026 C 303.011 41.164,303.150 41.656,303.321 42.119 C 303.491 42.581,303.631 42.846,303.631 42.707 C 303.631 42.568,303.491 42.077,303.321 41.614 C 303.150 41.152,303.011 40.887,303.011 41.026 M64.144 42.158 C 63.977 42.784,63.802 43.409,63.756 43.548 C 63.709 43.686,63.724 43.753,63.789 43.695 C 63.946 43.554,64.612 41.185,64.520 41.093 C 64.481 41.053,64.311 41.533,64.144 42.158 M177.064 41.993 C 176.532 42.525,176.004 43.149,175.891 43.380 C 175.726 43.717,175.759 43.701,176.060 43.296 C 176.266 43.018,176.851 42.394,177.361 41.908 C 177.871 41.423,178.230 41.026,178.159 41.026 C 178.089 41.026,177.596 41.461,177.064 41.993 M114.992 41.420 C 115.233 41.719,115.847 42.113,115.847 41.968 C 115.847 41.925,115.601 41.717,115.301 41.506 C 114.913 41.234,114.823 41.209,114.992 41.420 M191.089 42.034 C 191.544 42.497,191.955 42.875,192.001 42.875 C 192.047 42.875,191.712 42.497,191.257 42.034 C 190.801 41.572,190.391 41.194,190.345 41.194 C 190.298 41.194,190.633 41.572,191.089 42.034 M116.189 42.464 C 116.196 42.633,117.022 43.697,117.023 43.538 C 117.024 43.487,116.835 43.189,116.604 42.875 C 116.372 42.562,116.186 42.377,116.189 42.464 M192.372 43.684 C 192.588 44.059,192.790 44.340,192.822 44.309 C 192.911 44.220,192.375 43.247,192.166 43.118 C 192.064 43.055,192.157 43.310,192.372 43.684 M30.113 43.606 C 30.086 43.835,30.801 46.094,30.876 46.019 C 30.914 45.981,30.762 45.391,30.537 44.707 C 30.313 44.023,30.122 43.528,30.113 43.606 M130.062 44.220 C 130.399 47.212,130.335 50.420,129.873 53.720 C 129.803 54.219,129.804 54.219,129.952 53.776 C 130.488 52.174,130.615 45.717,130.144 44.052 C 129.983 43.484,129.980 43.490,130.062 44.220 M162.766 44.587 C 162.660 45.079,162.504 46.200,162.418 47.079 C 162.208 49.230,162.213 77.321,162.424 79.361 C 162.597 81.030,162.911 82.795,163.017 82.689 C 163.050 82.655,162.956 82.025,162.806 81.288 C 162.571 80.130,162.525 77.880,162.466 64.565 C 162.399 49.484,162.464 46.772,162.944 44.576 C 163.033 44.171,163.072 43.806,163.032 43.766 C 162.991 43.726,162.872 44.095,162.766 44.587 M175.048 45.140 C 174.854 45.658,174.697 46.212,174.700 46.370 C 174.702 46.529,174.885 46.129,175.105 45.481 C 175.588 44.066,175.545 43.811,175.048 45.140 M292.593 44.500 C 292.370 44.924,291.692 47.443,291.777 47.529 C 291.815 47.567,292.015 46.971,292.221 46.203 C 292.427 45.436,292.674 44.712,292.770 44.595 C 292.866 44.477,292.902 44.338,292.850 44.286 C 292.798 44.234,292.682 44.330,292.593 44.500 M117.376 44.388 C 117.370 44.435,117.518 44.926,117.705 45.481 C 117.892 46.036,118.008 46.252,117.962 45.962 C 117.888 45.485,117.404 44.184,117.376 44.388 M42.817 45.055 C 42.927 45.693,43.350 46.928,43.365 46.658 C 43.371 46.566,43.227 46.036,43.045 45.481 C 42.864 44.926,42.761 44.735,42.817 45.055 M75.415 45.655 C 75.263 46.180,75.169 46.642,75.207 46.680 C 75.246 46.718,75.400 46.318,75.550 45.790 C 75.700 45.262,75.794 44.800,75.758 44.765 C 75.722 44.729,75.568 45.130,75.415 45.655 M280.891 46.003 C 280.729 46.518,280.626 46.970,280.663 47.007 C 280.700 47.044,280.863 46.653,281.026 46.137 C 281.188 45.621,281.291 45.169,281.254 45.132 C 281.217 45.095,281.054 45.487,280.891 46.003 M62.892 46.582 C 62.689 47.335,62.557 47.985,62.598 48.026 C 62.640 48.068,62.841 47.487,63.044 46.734 C 63.247 45.982,63.379 45.332,63.337 45.290 C 63.295 45.248,63.095 45.830,62.892 46.582 M304.356 45.397 C 304.356 45.536,304.495 46.028,304.666 46.490 C 304.836 46.953,304.976 47.217,304.976 47.079 C 304.976 46.940,304.836 46.448,304.666 45.986 C 304.495 45.523,304.356 45.259,304.356 45.397 M293.116 45.649 C 293.168 45.834,293.339 46.461,293.497 47.041 C 293.655 47.622,293.814 48.066,293.851 48.029 C 293.936 47.944,293.278 45.552,293.132 45.415 C 293.072 45.359,293.065 45.464,293.116 45.649 M205.688 46.658 C 205.689 47.306,205.719 47.550,205.755 47.201 C 205.792 46.852,205.791 46.322,205.754 46.024 C 205.717 45.726,205.687 46.011,205.688 46.658 M193.470 47.163 C 193.622 48.896,193.846 50.156,194.037 50.344 C 194.169 50.475,194.176 50.407,194.059 50.099 C 193.971 49.864,193.842 49.075,193.774 48.345 C 193.706 47.616,193.589 46.824,193.515 46.586 C 193.433 46.320,193.415 46.541,193.470 47.163 M118.263 49.433 C 118.263 50.404,118.291 50.801,118.325 50.315 C 118.359 49.830,118.359 49.035,118.325 48.550 C 118.291 48.064,118.263 48.462,118.263 49.433 M31.468 48.087 C 31.468 48.226,31.607 48.718,31.778 49.180 C 31.949 49.643,32.088 49.908,32.088 49.769 C 32.088 49.630,31.949 49.138,31.778 48.676 C 31.607 48.214,31.468 47.949,31.468 48.087 M43.990 49.258 C 44.047 49.579,44.198 50.108,44.325 50.435 L 44.556 51.030 44.451 50.447 C 44.393 50.127,44.242 49.597,44.115 49.270 L 43.885 48.676 43.990 49.258 M279.622 50.114 C 279.421 50.776,279.287 51.348,279.324 51.385 C 279.362 51.423,279.555 50.910,279.755 50.247 C 279.954 49.583,280.088 49.011,280.053 48.975 C 280.017 48.939,279.823 49.452,279.622 50.114 M290.895 50.289 C 290.689 51.039,290.551 51.684,290.589 51.721 C 290.626 51.758,290.825 51.175,291.031 50.425 C 291.236 49.675,291.374 49.031,291.336 48.994 C 291.299 48.956,291.100 49.539,290.895 50.289 M74.082 50.038 C 73.919 50.553,73.816 51.006,73.853 51.043 C 73.890 51.080,74.054 50.688,74.216 50.172 C 74.379 49.657,74.481 49.205,74.444 49.168 C 74.407 49.131,74.244 49.522,74.082 50.038 M305.567 49.391 C 305.928 50.661,306.250 51.603,306.305 51.548 C 306.393 51.461,305.686 49.096,305.572 49.096 C 305.524 49.096,305.521 49.229,305.567 49.391 M204.947 50.222 C 204.709 50.708,204.619 51.020,204.747 50.914 C 204.996 50.706,205.503 49.608,205.426 49.439 C 205.401 49.382,205.185 49.735,204.947 50.222 M294.334 49.853 C 294.380 50.130,294.566 50.811,294.746 51.366 C 294.926 51.921,295.036 52.148,294.989 51.871 C 294.943 51.593,294.758 50.912,294.577 50.357 C 294.397 49.802,294.288 49.575,294.334 49.853 M61.727 50.719 C 61.415 51.908,61.322 52.376,61.415 52.291 C 61.546 52.172,62.043 50.217,61.963 50.137 C 61.927 50.101,61.820 50.363,61.727 50.719 M194.926 51.324 C 195.290 51.671,195.670 51.955,195.772 51.955 C 195.873 51.955,195.768 51.830,195.540 51.677 C 195.311 51.524,194.930 51.240,194.694 51.046 C 194.457 50.852,194.561 50.977,194.926 51.324 M203.531 51.798 C 203.253 51.976,203.113 52.121,203.218 52.122 C 203.323 52.122,203.588 51.974,203.807 51.792 C 204.306 51.376,204.186 51.378,203.531 51.798 M32.645 51.955 C 32.645 52.093,32.784 52.585,32.955 53.047 C 33.126 53.510,33.265 53.775,33.265 53.636 C 33.265 53.497,33.126 53.005,32.955 52.543 C 32.784 52.081,32.645 51.816,32.645 51.955 M117.801 53.097 C 117.634 53.717,117.463 54.338,117.421 54.477 C 117.379 54.615,117.452 54.540,117.582 54.309 C 117.840 53.854,118.282 52.148,118.171 52.037 C 118.134 52.000,117.967 52.477,117.801 53.097 M198.949 52.583 C 199.388 52.617,200.107 52.617,200.546 52.583 C 200.986 52.548,200.626 52.520,199.748 52.520 C 198.869 52.520,198.510 52.548,198.949 52.583 M45.075 53.047 C 45.070 53.140,45.214 53.670,45.395 54.224 C 45.577 54.779,45.680 54.971,45.624 54.651 C 45.513 54.013,45.090 52.778,45.075 53.047 M306.744 53.258 C 307.105 54.528,307.427 55.471,307.482 55.415 C 307.570 55.328,306.863 52.963,306.749 52.963 C 306.701 52.963,306.698 53.096,306.744 53.258 M289.634 54.746 C 289.387 55.639,289.214 56.399,289.251 56.436 C 289.288 56.473,289.521 55.773,289.769 54.880 C 290.017 53.987,290.189 53.227,290.152 53.190 C 290.115 53.153,289.882 53.853,289.634 54.746 M278.358 54.230 C 277.996 55.473,278.119 55.596,278.504 54.376 C 278.666 53.860,278.762 53.402,278.717 53.357 C 278.672 53.312,278.511 53.705,278.358 54.230 M72.819 54.156 C 72.705 54.535,72.643 54.877,72.681 54.914 C 72.719 54.952,72.843 54.673,72.957 54.293 C 73.070 53.914,73.132 53.572,73.094 53.534 C 73.057 53.497,72.933 53.776,72.819 54.156 M295.696 54.645 C 295.751 54.968,295.936 55.649,296.106 56.158 C 296.276 56.667,296.378 56.856,296.333 56.578 C 296.287 56.301,296.103 55.620,295.922 55.065 C 295.742 54.510,295.640 54.321,295.696 54.645 M60.298 55.843 C 60.141 56.410,60.042 56.904,60.079 56.941 C 60.116 56.978,60.276 56.545,60.435 55.979 C 60.594 55.414,60.692 54.920,60.654 54.882 C 60.616 54.843,60.456 55.276,60.298 55.843 M116.203 56.453 C 115.688 57.128,115.612 57.282,115.952 56.964 C 116.374 56.570,117.137 55.484,116.991 55.486 C 116.963 55.486,116.608 55.922,116.203 56.453 M129.005 56.692 C 128.797 57.262,128.657 57.759,128.694 57.796 C 128.786 57.888,129.490 55.978,129.430 55.799 C 129.404 55.720,129.212 56.122,129.005 56.692 M33.990 56.326 C 33.990 56.465,34.130 56.957,34.300 57.419 C 34.471 57.881,34.610 58.146,34.610 58.008 C 34.610 57.869,34.471 57.377,34.300 56.915 C 34.130 56.452,33.990 56.187,33.990 56.326 M277.259 57.839 C 277.061 58.504,276.931 59.080,276.969 59.118 C 277.007 59.156,277.201 58.645,277.401 57.981 C 277.600 57.317,277.731 56.742,277.692 56.702 C 277.652 56.663,277.457 57.174,277.259 57.839 M71.571 58.288 C 71.420 58.816,71.327 59.277,71.363 59.313 C 71.398 59.348,71.552 58.948,71.705 58.422 C 71.858 57.897,71.952 57.436,71.913 57.397 C 71.875 57.359,71.721 57.760,71.571 58.288 M114.341 57.941 C 113.837 58.255,113.500 58.512,113.594 58.512 C 113.796 58.512,115.343 57.549,115.343 57.423 C 115.343 57.310,115.406 57.277,114.341 57.941 M308.089 57.629 C 308.450 58.900,308.772 59.842,308.827 59.787 C 308.915 59.700,308.208 57.335,308.094 57.335 C 308.046 57.335,308.043 57.467,308.089 57.629 M46.512 58.170 C 46.570 58.490,46.720 59.020,46.847 59.347 L 47.078 59.941 46.973 59.359 C 46.915 59.038,46.764 58.509,46.637 58.182 L 46.407 57.587 46.512 58.170 M288.364 59.193 C 288.161 59.945,288.027 60.592,288.065 60.631 C 288.103 60.669,288.303 60.087,288.509 59.337 C 288.714 58.587,288.849 57.940,288.808 57.899 C 288.767 57.858,288.568 58.440,288.364 59.193 M296.834 58.764 C 297.080 59.812,297.469 61.057,297.532 60.994 C 297.607 60.919,296.935 58.467,296.805 58.344 C 296.756 58.298,296.769 58.487,296.834 58.764 M59.040 60.310 C 58.846 61.021,58.717 61.632,58.753 61.667 C 58.812 61.727,59.177 60.571,59.444 59.479 C 59.702 58.423,59.364 59.118,59.040 60.310 M127.412 60.037 C 127.070 60.585,126.824 61.034,126.866 61.034 C 126.989 61.034,128.178 59.185,128.102 59.110 C 128.064 59.072,127.753 59.489,127.412 60.037 M35.203 60.319 C 35.249 60.481,35.380 60.936,35.493 61.329 C 35.606 61.723,35.729 62.015,35.766 61.978 C 35.852 61.892,35.313 60.025,35.202 60.025 C 35.156 60.025,35.156 60.158,35.203 60.319 M275.933 62.146 C 275.744 62.774,275.620 63.318,275.656 63.354 C 275.693 63.391,275.880 62.910,276.073 62.286 C 276.266 61.662,276.390 61.118,276.350 61.077 C 276.309 61.036,276.121 61.517,275.933 62.146 M70.383 62.144 C 70.220 62.659,70.117 63.112,70.154 63.149 C 70.191 63.185,70.354 62.794,70.517 62.278 C 70.680 61.763,70.782 61.311,70.745 61.274 C 70.708 61.237,70.545 61.628,70.383 62.144 M125.610 62.423 C 125.016 63.092,124.814 63.375,125.163 63.052 C 125.757 62.500,126.872 61.200,126.748 61.204 C 126.717 61.205,126.205 61.753,125.610 62.423 M309.266 61.496 C 309.627 62.767,309.949 63.709,310.004 63.654 C 310.092 63.567,309.385 61.202,309.271 61.202 C 309.223 61.202,309.220 61.335,309.266 61.496 M47.689 62.373 C 47.747 62.693,47.897 63.223,48.024 63.550 L 48.255 64.145 48.150 63.562 C 48.092 63.242,47.941 62.712,47.814 62.385 L 47.584 61.791 47.689 62.373 M287.196 63.321 C 286.992 64.025,286.854 64.632,286.891 64.669 C 286.928 64.706,287.126 64.160,287.331 63.455 C 287.536 62.751,287.673 62.144,287.636 62.107 C 287.599 62.070,287.401 62.616,287.196 63.321 M298.201 63.472 C 298.248 63.749,298.433 64.430,298.613 64.985 C 298.793 65.540,298.903 65.767,298.856 65.490 C 298.810 65.212,298.625 64.531,298.444 63.976 C 298.264 63.422,298.155 63.195,298.201 63.472 M57.847 64.573 C 57.644 65.325,57.510 65.973,57.548 66.011 C 57.586 66.049,57.786 65.467,57.992 64.717 C 58.197 63.967,58.332 63.320,58.291 63.279 C 58.250 63.238,58.050 63.820,57.847 64.573 M123.581 64.249 C 122.995 64.763,122.995 64.764,123.534 64.405 C 123.832 64.207,124.120 63.973,124.175 63.885 C 124.337 63.622,124.202 63.705,123.581 64.249 M36.379 64.187 C 36.739 65.457,37.061 66.400,37.116 66.344 C 37.204 66.257,36.497 63.892,36.383 63.892 C 36.335 63.892,36.333 64.025,36.379 64.187 M122.199 65.137 C 121.299 65.671,121.190 65.844,122.015 65.429 C 122.401 65.234,122.765 64.997,122.823 64.904 C 122.957 64.688,122.950 64.690,122.199 65.137 M274.650 66.327 C 274.405 67.130,274.236 67.819,274.276 67.858 C 274.315 67.898,274.546 67.271,274.788 66.466 C 275.031 65.660,275.200 64.971,275.162 64.934 C 275.125 64.897,274.895 65.524,274.650 66.327 M310.425 65.280 C 310.468 65.395,310.676 66.077,310.888 66.795 C 311.100 67.514,311.307 68.068,311.347 68.028 C 311.443 67.932,310.569 65.069,310.443 65.069 C 310.390 65.069,310.382 65.164,310.425 65.280 M69.120 66.262 C 69.006 66.641,68.944 66.983,68.982 67.020 C 69.020 67.058,69.144 66.779,69.258 66.399 C 69.371 66.020,69.433 65.678,69.395 65.640 C 69.358 65.603,69.234 65.882,69.120 66.262 M119.462 66.443 C 119.000 66.624,118.546 66.849,118.453 66.942 C 118.285 67.111,119.893 66.525,120.380 66.240 C 120.804 65.992,120.361 66.090,119.462 66.443 M226.818 66.372 C 226.818 66.442,231.509 66.499,237.243 66.499 C 242.976 66.499,247.667 66.442,247.667 66.372 C 247.667 66.303,242.976 66.246,237.243 66.246 C 231.509 66.246,226.818 66.303,226.818 66.372 M49.038 67.081 C 49.148 67.719,49.571 68.954,49.587 68.684 C 49.592 68.592,49.448 68.062,49.266 67.507 C 49.085 66.953,48.982 66.761,49.038 67.081 M285.929 67.770 C 285.770 68.336,285.673 68.832,285.714 68.872 C 285.754 68.913,285.917 68.483,286.076 67.917 C 286.235 67.352,286.332 66.856,286.291 66.815 C 286.251 66.775,286.088 67.204,285.929 67.770 M119.030 68.516 C 119.406 69.210,120.022 70.345,120.398 71.038 C 120.775 71.732,121.121 72.299,121.169 72.299 C 121.248 72.299,120.533 70.927,119.088 68.306 C 118.769 67.728,118.472 67.255,118.427 67.255 C 118.382 67.255,118.653 67.823,119.030 68.516 M299.356 67.675 C 299.605 68.733,299.992 69.968,300.055 69.904 C 300.136 69.824,299.470 67.380,299.334 67.258 C 299.281 67.210,299.291 67.398,299.356 67.675 M56.670 68.776 C 56.467 69.529,56.333 70.176,56.371 70.214 C 56.409 70.253,56.609 69.671,56.815 68.921 C 57.020 68.170,57.155 67.523,57.114 67.482 C 57.073 67.442,56.874 68.024,56.670 68.776 M37.543 67.979 C 37.589 68.099,37.759 68.669,37.921 69.244 C 38.082 69.820,38.250 70.255,38.294 70.211 C 38.395 70.110,37.687 67.760,37.556 67.760 C 37.503 67.760,37.497 67.858,37.543 67.979 M98.270 68.979 C 98.226 69.094,98.210 74.712,98.234 81.463 L 98.279 93.737 98.320 81.340 L 98.361 68.943 102.270 68.894 L 106.179 68.846 102.265 68.807 C 99.259 68.777,98.331 68.817,98.270 68.979 M106.550 70.025 C 106.798 70.531,107.029 70.917,107.064 70.882 C 107.139 70.807,106.291 69.105,106.178 69.105 C 106.134 69.105,106.302 69.519,106.550 70.025 M273.409 70.383 C 273.204 71.087,273.068 71.694,273.105 71.732 C 273.143 71.770,273.344 71.227,273.552 70.525 C 273.760 69.824,273.897 69.217,273.856 69.176 C 273.815 69.135,273.614 69.678,273.409 70.383 M311.741 69.357 C 311.735 69.449,311.916 70.092,312.143 70.786 C 312.371 71.480,312.513 71.790,312.460 71.475 C 312.351 70.838,311.759 69.093,311.741 69.357 M67.872 70.394 C 67.721 70.922,67.628 71.383,67.664 71.419 C 67.699 71.454,67.853 71.054,68.006 70.528 C 68.159 70.003,68.253 69.542,68.214 69.503 C 68.176 69.465,68.022 69.866,67.872 70.394 M50.211 71.284 C 50.269 71.605,50.419 72.134,50.546 72.461 L 50.777 73.056 50.672 72.473 C 50.614 72.153,50.463 71.623,50.336 71.296 L 50.106 70.702 50.211 71.284 M284.852 71.603 C 284.745 71.961,284.657 72.340,284.657 72.445 C 284.657 72.584,286.824 72.636,292.728 72.636 L 300.799 72.636 300.779 72.257 C 300.764 71.973,300.741 71.952,300.683 72.173 C 300.599 72.495,284.826 72.645,284.826 72.324 C 284.826 72.246,284.910 71.939,285.013 71.643 C 285.116 71.347,285.166 71.071,285.124 71.029 C 285.082 70.986,284.960 71.245,284.852 71.603 M107.608 72.131 C 107.888 72.686,108.155 73.140,108.202 73.140 C 108.248 73.140,108.056 72.686,107.776 72.131 C 107.496 71.576,107.229 71.122,107.183 71.122 C 107.137 71.122,107.328 71.576,107.608 72.131 M38.901 72.425 C 39.261 73.696,39.583 74.638,39.638 74.583 C 39.726 74.496,39.019 72.131,38.905 72.131 C 38.857 72.131,38.855 72.264,38.901 72.425 M55.487 72.997 C 55.383 73.399,55.219 73.979,55.123 74.286 C 55.027 74.593,54.983 74.880,55.027 74.924 C 55.071 74.967,55.266 74.418,55.460 73.703 C 55.655 72.988,55.783 72.372,55.745 72.334 C 55.707 72.296,55.591 72.595,55.487 72.997 M121.227 72.568 C 121.227 72.661,121.292 72.808,121.371 72.896 C 121.450 72.984,121.873 73.737,122.312 74.569 C 122.750 75.401,123.187 76.158,123.283 76.251 C 123.476 76.436,121.600 72.816,121.371 72.560 C 121.281 72.460,121.227 72.463,121.227 72.568 M198.417 73.033 C 198.455 73.067,199.281 73.131,200.252 73.175 C 201.223 73.219,201.791 73.200,201.513 73.133 C 200.998 73.009,198.290 72.922,198.417 73.033 M272.242 74.175 C 272.042 74.839,271.911 75.414,271.951 75.454 C 271.991 75.494,272.185 74.982,272.383 74.317 C 272.581 73.652,272.712 73.076,272.674 73.038 C 272.636 73.000,272.441 73.512,272.242 74.175 M312.921 73.206 C 312.893 73.458,313.596 75.700,313.677 75.618 C 313.719 75.577,313.569 74.983,313.345 74.299 C 313.121 73.615,312.930 73.123,312.921 73.206 M66.609 74.512 C 66.410 75.175,66.279 75.751,66.319 75.790 C 66.358 75.830,66.553 75.318,66.751 74.653 C 66.949 73.988,67.080 73.413,67.041 73.375 C 67.003 73.336,66.809 73.848,66.609 74.512 M195.250 74.000 C 194.950 74.192,194.704 74.422,194.704 74.510 C 194.704 74.598,194.987 74.461,195.334 74.206 C 195.681 73.951,195.996 73.720,196.035 73.693 C 196.073 73.666,196.035 73.646,195.951 73.647 C 195.866 73.649,195.551 73.808,195.250 74.000 M204.084 74.246 C 204.389 74.516,204.827 75.116,205.059 75.578 C 205.290 76.040,205.432 76.230,205.375 75.998 C 205.226 75.401,204.447 74.314,203.951 74.012 C 203.659 73.834,203.700 73.905,204.084 74.246 M108.774 74.372 C 108.959 74.859,109.624 75.961,109.625 75.783 C 109.626 75.599,108.797 73.981,108.702 73.981 C 108.660 73.981,108.692 74.157,108.774 74.372 M51.376 75.410 C 51.422 75.687,51.607 76.368,51.787 76.923 C 51.967 77.478,52.069 77.667,52.013 77.343 C 51.958 77.020,51.773 76.339,51.603 75.830 C 51.433 75.322,51.331 75.132,51.376 75.410 M193.881 75.704 C 193.804 75.912,193.690 76.536,193.630 77.091 C 193.569 77.646,193.475 78.478,193.420 78.941 C 193.365 79.403,193.365 79.739,193.419 79.688 C 193.474 79.636,193.599 78.842,193.697 77.922 C 193.795 77.003,193.945 76.042,194.029 75.788 C 194.212 75.235,194.084 75.162,193.881 75.704 M40.060 76.208 C 40.104 76.324,40.268 76.862,40.424 77.404 C 40.581 77.945,40.744 78.354,40.786 78.312 C 40.883 78.214,40.204 75.998,40.076 75.998 C 40.024 75.998,40.016 76.093,40.060 76.208 M110.298 77.343 C 110.579 77.898,110.846 78.352,110.892 78.352 C 110.938 78.352,110.747 77.898,110.467 77.343 C 110.186 76.789,109.919 76.335,109.873 76.335 C 109.827 76.335,110.018 76.789,110.298 77.343 M123.414 76.547 C 123.413 76.714,124.432 78.520,124.526 78.520 C 124.566 78.520,124.477 78.284,124.327 77.996 C 123.912 77.192,123.415 76.404,123.414 76.547 M270.987 78.301 C 270.744 79.106,270.574 79.794,270.609 79.829 C 270.645 79.864,270.874 79.236,271.119 78.433 C 271.364 77.630,271.534 76.942,271.496 76.905 C 271.459 76.867,271.230 77.496,270.987 78.301 M54.067 78.026 C 53.908 78.592,53.811 79.088,53.852 79.129 C 53.892 79.169,54.055 78.739,54.214 78.174 C 54.373 77.608,54.469 77.112,54.429 77.072 C 54.389 77.031,54.226 77.461,54.067 78.026 M314.266 77.578 C 314.238 77.829,314.941 80.071,315.022 79.990 C 315.064 79.948,314.915 79.354,314.690 78.671 C 314.466 77.987,314.275 77.495,314.266 77.578 M65.350 78.632 C 65.199 79.160,65.106 79.622,65.141 79.657 C 65.177 79.693,65.331 79.292,65.484 78.767 C 65.637 78.242,65.731 77.780,65.692 77.742 C 65.654 77.704,65.500 78.105,65.350 78.632 M205.689 79.025 C 205.689 79.718,205.719 80.002,205.755 79.655 C 205.791 79.309,205.791 78.741,205.755 78.394 C 205.719 78.047,205.689 78.331,205.689 79.025 M111.139 78.919 C 111.139 79.101,111.807 80.370,111.903 80.370 C 111.949 80.370,111.824 80.048,111.626 79.655 C 111.237 78.882,111.139 78.735,111.139 78.919 M125.263 80.034 C 125.451 80.404,125.644 80.706,125.690 80.706 C 125.736 80.706,125.620 80.404,125.431 80.034 C 125.242 79.664,125.050 79.361,125.004 79.361 C 124.957 79.361,125.074 79.664,125.263 80.034 M41.211 79.765 C 41.183 80.017,42.098 82.955,42.153 82.790 C 42.181 82.706,41.984 81.957,41.716 81.125 C 41.447 80.294,41.220 79.682,41.211 79.765 M52.627 79.763 C 52.627 80.132,53.024 81.379,53.141 81.379 C 53.217 81.379,53.159 81.019,53.013 80.580 C 52.748 79.787,52.627 79.530,52.627 79.763 M174.802 80.454 C 174.911 81.010,175.638 82.724,175.766 82.724 C 175.811 82.724,175.655 82.251,175.420 81.673 C 174.712 79.932,174.694 79.896,174.802 80.454 M112.771 82.131 C 113.019 82.637,113.250 83.023,113.285 82.988 C 113.360 82.913,112.512 81.211,112.399 81.211 C 112.355 81.211,112.523 81.625,112.771 82.131 M269.720 82.414 C 269.520 83.078,269.386 83.650,269.422 83.686 C 269.458 83.721,269.651 83.209,269.852 82.547 C 270.054 81.885,270.188 81.313,270.150 81.275 C 270.113 81.238,269.919 81.751,269.720 82.414 M315.443 81.445 C 315.415 81.696,316.118 83.938,316.199 83.857 C 316.241 83.815,316.092 83.222,315.867 82.538 C 315.643 81.854,315.452 81.362,315.443 81.445 M64.087 82.750 C 63.888 83.414,63.757 83.989,63.796 84.029 C 63.836 84.069,64.031 83.557,64.229 82.892 C 64.427 82.227,64.558 81.652,64.519 81.613 C 64.481 81.575,64.287 82.087,64.087 82.750 M126.524 82.388 C 126.758 82.850,126.988 83.228,127.034 83.228 C 127.080 83.228,126.926 82.850,126.692 82.388 C 126.458 81.925,126.228 81.547,126.182 81.547 C 126.136 81.547,126.289 81.925,126.524 82.388 M192.378 82.488 C 192.173 82.908,192.074 83.211,192.157 83.159 C 192.347 83.042,192.906 81.879,192.816 81.789 C 192.779 81.752,192.582 82.067,192.378 82.488 M281.903 82.583 C 281.756 83.317,281.873 83.352,282.091 82.640 C 282.191 82.316,282.213 82.051,282.141 82.051 C 282.068 82.051,281.961 82.290,281.903 82.583 M303.334 82.144 C 303.341 82.232,303.453 82.568,303.584 82.892 L 303.822 83.480 303.722 82.892 C 303.632 82.367,303.300 81.727,303.334 82.144 M176.019 83.189 C 176.465 84.021,178.758 85.922,179.310 85.917 C 179.407 85.916,179.104 85.696,178.636 85.427 C 178.168 85.159,177.343 84.461,176.803 83.878 C 176.262 83.294,175.910 82.984,176.019 83.189 M204.836 84.281 C 204.640 84.948,204.507 85.522,204.541 85.556 C 204.575 85.590,204.768 85.076,204.969 84.414 C 205.170 83.752,205.303 83.179,205.264 83.140 C 205.225 83.101,205.033 83.615,204.836 84.281 M113.829 84.237 C 114.109 84.792,114.376 85.246,114.423 85.246 C 114.469 85.246,114.278 84.792,113.997 84.237 C 113.717 83.682,113.450 83.228,113.404 83.228 C 113.358 83.228,113.549 83.682,113.829 84.237 M127.701 84.573 C 127.935 85.036,128.165 85.414,128.211 85.414 C 128.257 85.414,128.103 85.036,127.869 84.573 C 127.635 84.111,127.405 83.733,127.359 83.733 C 127.313 83.733,127.466 84.111,127.701 84.573 M190.996 84.531 L 190.416 85.162 191.047 84.582 C 191.393 84.264,191.677 83.980,191.677 83.952 C 191.677 83.823,191.535 83.944,190.996 84.531 M42.555 84.135 C 42.528 84.387,43.230 86.628,43.311 86.547 C 43.353 86.505,43.204 85.912,42.980 85.228 C 42.755 84.544,42.565 84.052,42.555 84.135 M163.430 84.455 C 163.430 84.670,164.138 86.444,164.199 86.382 C 164.234 86.347,164.107 85.907,163.916 85.404 C 163.583 84.527,163.430 84.228,163.430 84.455 M280.975 85.851 C 280.770 86.556,280.633 87.163,280.670 87.200 C 280.707 87.237,280.905 86.690,281.110 85.986 C 281.314 85.281,281.452 84.674,281.415 84.637 C 281.378 84.600,281.180 85.147,280.975 85.851 M304.161 84.800 C 304.161 85.093,305.058 88.104,305.125 88.037 C 305.167 87.995,304.999 87.256,304.751 86.393 C 304.342 84.973,304.161 84.483,304.161 84.800 M189.804 85.424 C 189.428 85.751,189.427 85.760,189.776 85.591 C 189.979 85.493,190.192 85.337,190.249 85.245 C 190.414 84.978,190.233 85.050,189.804 85.424 M62.832 86.876 C 62.590 87.681,62.421 88.371,62.458 88.408 C 62.496 88.445,62.726 87.818,62.971 87.015 C 63.216 86.212,63.385 85.523,63.345 85.483 C 63.306 85.444,63.075 86.071,62.832 86.876 M268.449 86.524 C 268.286 87.039,268.184 87.492,268.221 87.528 C 268.258 87.565,268.421 87.174,268.583 86.658 C 268.746 86.143,268.849 85.691,268.812 85.654 C 268.775 85.617,268.611 86.008,268.449 86.524 M316.784 85.809 C 316.760 86.087,317.329 87.849,317.388 87.678 C 317.421 87.582,317.302 87.090,317.122 86.585 C 316.943 86.080,316.791 85.730,316.784 85.809 M128.878 86.759 C 129.112 87.222,129.342 87.600,129.388 87.600 C 129.434 87.600,129.280 87.222,129.046 86.759 C 128.812 86.297,128.582 85.918,128.536 85.918 C 128.490 85.918,128.643 86.297,128.878 86.759 M114.961 86.381 C 115.132 86.826,115.843 88.039,115.845 87.888 C 115.848 87.708,115.019 86.087,114.925 86.087 C 114.883 86.087,114.899 86.219,114.961 86.381 M187.306 86.367 C 186.158 86.669,182.858 86.717,181.518 86.452 C 180.971 86.344,180.492 86.287,180.454 86.325 C 179.782 86.997,187.104 86.917,188.314 86.238 C 188.657 86.046,188.401 86.079,187.306 86.367 M203.734 87.016 C 203.485 87.522,203.318 87.936,203.362 87.936 C 203.475 87.936,204.323 86.234,204.247 86.159 C 204.213 86.124,203.982 86.510,203.734 87.016 M164.607 87.347 C 164.607 87.540,165.440 88.945,165.555 88.945 C 165.606 88.945,165.440 88.586,165.187 88.146 C 164.654 87.223,164.607 87.158,164.607 87.347 M43.901 88.499 C 43.873 88.732,44.414 90.489,44.489 90.413 C 44.528 90.375,44.415 89.896,44.238 89.350 C 44.062 88.804,43.910 88.420,43.901 88.499 M116.520 89.449 C 116.800 90.004,117.067 90.458,117.113 90.458 C 117.159 90.458,116.968 90.004,116.688 89.449 C 116.408 88.894,116.141 88.441,116.094 88.441 C 116.048 88.441,116.239 88.894,116.520 89.449 M130.055 88.945 C 130.198 89.222,130.353 89.449,130.400 89.449 C 130.446 89.449,130.366 89.222,130.223 88.945 C 130.079 88.668,129.924 88.441,129.878 88.441 C 129.832 88.441,129.911 88.668,130.055 88.945 M202.515 89.071 C 202.351 89.325,201.567 90.214,200.772 91.047 C 199.451 92.430,199.473 92.469,200.850 91.189 C 201.376 90.700,202.942 88.826,202.942 88.686 C 202.942 88.505,202.794 88.638,202.515 89.071 M61.637 90.808 C 61.384 91.650,61.207 92.369,61.244 92.406 C 61.281 92.443,61.518 91.784,61.770 90.942 C 62.022 90.099,62.198 89.381,62.162 89.344 C 62.126 89.308,61.889 89.967,61.637 90.808 M279.708 90.301 C 279.549 90.866,279.452 91.362,279.493 91.403 C 279.533 91.443,279.696 91.013,279.855 90.448 C 280.014 89.882,280.110 89.386,280.070 89.346 C 280.030 89.305,279.867 89.735,279.708 90.301 M267.259 90.446 C 266.860 91.762,266.975 92.719,267.650 93.699 C 268.139 94.410,269.997 95.841,270.427 95.837 C 270.532 95.836,270.240 95.618,269.777 95.351 C 267.500 94.040,266.805 92.592,267.435 90.472 C 267.580 89.984,267.668 89.553,267.630 89.516 C 267.592 89.478,267.425 89.897,267.259 90.446 M305.612 89.948 C 305.670 90.268,305.821 90.798,305.948 91.125 L 306.178 91.719 306.073 91.137 C 306.016 90.816,305.865 90.287,305.738 89.960 L 305.507 89.365 305.612 89.948 M166.263 90.086 C 166.471 90.378,166.727 90.670,166.834 90.736 C 166.940 90.801,166.857 90.617,166.650 90.325 C 166.442 90.034,166.186 89.742,166.079 89.676 C 165.973 89.611,166.056 89.795,166.263 90.086 M318.037 89.954 C 318.088 90.185,318.217 90.764,318.323 91.242 C 318.484 91.966,318.472 92.223,318.246 92.797 C 317.918 93.631,318.034 93.723,318.378 92.902 C 318.698 92.134,318.667 91.401,318.270 90.374 C 318.091 89.912,317.986 89.723,318.037 89.954 M117.361 91.061 C 117.362 91.247,118.188 92.611,118.196 92.439 C 118.201 92.326,117.572 91.131,117.426 90.977 C 117.390 90.938,117.361 90.976,117.361 91.061 M167.265 91.238 C 167.358 91.412,167.607 91.705,167.818 91.889 L 168.201 92.224 167.826 91.682 C 167.387 91.051,167.001 90.745,167.265 91.238 M168.558 92.462 C 168.885 92.838,169.819 93.568,169.819 93.448 C 169.819 93.415,169.460 93.092,169.021 92.731 C 168.581 92.370,168.373 92.249,168.558 92.462 M45.073 92.404 C 45.047 92.786,45.604 94.147,45.872 94.357 C 46.120 94.551,46.128 94.545,45.941 94.304 C 45.823 94.154,45.583 93.625,45.406 93.127 C 45.230 92.630,45.080 92.305,45.073 92.404 M130.174 93.031 C 129.756 93.819,129.044 94.633,128.037 95.478 C 127.667 95.788,127.533 95.956,127.738 95.852 C 128.607 95.413,130.891 92.668,130.616 92.393 C 130.579 92.356,130.380 92.643,130.174 93.031 M198.655 92.906 C 198.341 93.172,198.283 93.271,198.501 93.166 C 198.813 93.017,199.380 92.475,199.222 92.477 C 199.187 92.477,198.932 92.670,198.655 92.906 M118.958 94.157 C 119.192 94.620,119.421 94.998,119.468 94.998 C 119.514 94.998,119.360 94.620,119.126 94.157 C 118.891 93.695,118.662 93.317,118.616 93.317 C 118.569 93.317,118.723 93.695,118.958 94.157 M170.115 93.688 C 170.314 93.927,171.669 94.734,171.669 94.613 C 171.669 94.575,171.277 94.300,170.797 94.002 C 170.318 93.704,170.011 93.563,170.115 93.688 M278.611 94.134 C 278.514 94.491,278.238 95.076,277.995 95.433 C 277.753 95.790,277.683 95.975,277.840 95.845 C 278.173 95.569,278.677 94.608,278.836 93.947 C 279.007 93.235,278.808 93.400,278.611 94.134 M371.882 94.287 C 371.515 95.307,371.628 95.420,372.012 94.416 C 372.173 93.992,372.274 93.613,372.235 93.574 C 372.196 93.535,372.037 93.856,371.882 94.287 M60.451 94.199 C 60.276 94.500,59.862 95.001,59.532 95.312 C 59.152 95.672,59.069 95.809,59.305 95.688 C 59.842 95.412,61.150 93.653,60.818 93.653 C 60.792 93.653,60.627 93.899,60.451 94.199 M86.261 93.830 C 86.249 94.303,87.600 95.839,88.027 95.839 C 88.095 95.839,87.931 95.670,87.665 95.464 C 87.035 94.978,86.794 94.690,86.505 94.073 C 86.375 93.796,86.265 93.686,86.261 93.830 M196.637 94.164 C 196.175 94.436,195.866 94.659,195.950 94.660 C 196.135 94.662,197.562 93.839,197.562 93.730 C 197.562 93.620,197.564 93.619,196.637 94.164 M317.267 94.283 L 316.688 94.914 317.318 94.334 C 317.905 93.795,318.026 93.653,317.898 93.653 C 317.870 93.653,317.586 93.937,317.267 94.283 M97.939 94.161 C 97.875 94.362,97.509 94.839,97.125 95.221 C 96.471 95.873,96.464 95.889,97.016 95.479 C 97.609 95.039,98.309 94.049,98.144 93.884 C 98.095 93.836,98.003 93.960,97.939 94.161 M226.244 94.514 C 226.077 94.797,225.593 95.249,225.169 95.518 C 224.745 95.787,224.477 96.007,224.574 96.007 C 225.061 96.007,226.850 94.301,226.612 94.064 C 226.577 94.028,226.411 94.231,226.244 94.514 M344.889 94.392 C 344.788 94.614,344.417 95.007,344.064 95.266 C 343.145 95.939,343.000 96.103,343.648 95.736 C 344.241 95.401,345.187 94.427,345.187 94.151 C 345.187 93.882,345.083 93.966,344.889 94.392 M306.852 94.349 C 306.852 95.767,309.326 97.019,311.657 96.780 C 312.691 96.675,314.510 96.211,314.385 96.086 C 314.348 96.049,313.955 96.128,313.510 96.262 C 310.652 97.122,308.091 96.540,307.230 94.835 C 307.022 94.423,306.852 94.204,306.852 94.349 M248.145 94.613 C 249.164 96.516,254.180 97.472,256.782 96.260 C 257.086 96.118,257.184 96.048,256.999 96.105 C 253.721 97.111,250.164 96.592,248.540 94.870 C 248.204 94.514,248.033 94.402,248.145 94.613 M258.428 95.197 C 258.012 95.576,257.823 95.807,258.008 95.709 C 258.324 95.542,259.417 94.485,259.258 94.500 C 259.218 94.504,258.844 94.818,258.428 95.197 M46.070 94.714 C 46.070 94.743,46.316 94.989,46.616 95.261 L 47.163 95.755 46.669 95.208 C 46.209 94.699,46.070 94.584,46.070 94.714 M334.259 95.055 C 334.490 95.318,334.830 95.611,335.015 95.706 C 335.369 95.889,335.358 95.878,334.427 95.081 L 333.839 94.578 334.259 95.055 M194.405 95.201 C 193.918 95.393,193.546 95.577,193.578 95.610 C 193.674 95.705,195.198 95.150,195.302 94.982 C 195.418 94.794,195.471 94.781,194.405 95.201 M315.893 95.233 C 314.994 95.768,314.885 95.941,315.709 95.525 C 316.096 95.330,316.460 95.094,316.518 95.000 C 316.651 94.785,316.645 94.787,315.893 95.233 M172.509 95.080 C 172.509 95.168,173.659 95.675,173.833 95.663 C 173.968 95.654,172.804 95.014,172.636 95.005 C 172.566 95.001,172.509 95.035,172.509 95.080 M120.135 95.810 C 120.504 96.211,121.011 96.646,121.261 96.777 C 121.959 97.143,122.058 97.059,121.396 96.662 C 121.072 96.469,120.504 96.034,120.135 95.696 L 119.462 95.082 120.135 95.810 M153.619 95.797 C 153.661 95.958,153.848 96.280,154.033 96.511 C 154.359 96.918,154.358 96.908,154.020 96.217 C 153.656 95.471,153.487 95.294,153.619 95.797 M47.841 96.184 C 47.970 96.393,49.789 97.039,50.002 96.951 C 50.105 96.909,50.076 96.866,49.937 96.857 C 49.798 96.847,49.251 96.661,48.720 96.443 C 48.190 96.225,47.794 96.108,47.841 96.184 M94.662 96.355 C 93.332 96.722,91.396 96.756,90.039 96.437 C 88.901 96.169,88.577 96.219,89.560 96.510 C 91.201 96.997,94.141 96.885,95.521 96.283 C 96.258 95.961,96.016 95.981,94.662 96.355 M126.187 96.530 C 125.633 96.802,125.368 96.974,125.599 96.914 C 126.098 96.784,127.280 96.202,127.280 96.087 C 127.280 95.986,127.374 95.949,126.187 96.530 M217.732 96.272 C 219.028 96.872,221.651 96.979,223.345 96.501 C 224.347 96.218,224.001 96.184,222.699 96.438 C 220.918 96.784,219.441 96.689,217.486 96.103 C 217.301 96.047,217.412 96.123,217.732 96.272 M271.538 96.272 C 273.014 96.956,276.298 96.944,277.195 96.252 C 277.461 96.048,277.410 96.049,276.880 96.262 C 275.562 96.793,273.588 96.730,271.249 96.083 C 271.087 96.039,271.217 96.124,271.538 96.272 M336.241 96.276 C 337.728 96.926,341.321 96.961,342.292 96.336 C 342.557 96.165,342.555 96.158,342.270 96.247 C 340.721 96.735,338.239 96.734,336.627 96.244 C 335.662 95.952,335.524 95.963,336.241 96.276 M57.503 96.468 C 57.087 96.615,56.828 96.762,56.927 96.795 C 57.119 96.859,58.344 96.394,58.344 96.257 C 58.344 96.212,58.325 96.181,58.302 96.188 C 58.279 96.195,57.919 96.322,57.503 96.468 M176.208 96.447 C 176.625 96.578,177.268 96.720,177.638 96.763 C 178.015 96.807,177.757 96.698,177.049 96.515 C 175.590 96.137,175.104 96.098,176.208 96.447 M190.248 96.522 C 189.396 96.746,189.277 96.805,189.820 96.735 C 190.602 96.634,192.115 96.207,191.677 96.210 C 191.538 96.211,190.895 96.352,190.248 96.522 M370.507 97.088 C 370.042 97.881,368.395 99.646,367.381 100.437 C 367.058 100.689,366.944 100.824,367.129 100.736 C 368.113 100.268,371.332 96.706,371.037 96.412 C 370.991 96.366,370.752 96.670,370.507 97.088 M186.843 97.131 C 187.005 97.174,187.270 97.174,187.432 97.131 C 187.594 97.089,187.461 97.055,187.137 97.055 C 186.814 97.055,186.681 97.089,186.843 97.131 M51.492 97.300 C 51.654 97.342,51.919 97.342,52.081 97.300 C 52.243 97.257,52.110 97.223,51.786 97.223 C 51.463 97.223,51.330 97.257,51.492 97.300 M54.182 97.300 C 54.344 97.342,54.609 97.342,54.771 97.300 C 54.933 97.257,54.800 97.223,54.477 97.223 C 54.153 97.223,54.021 97.257,54.182 97.300 M123.119 97.300 C 123.281 97.342,123.546 97.342,123.707 97.300 C 123.869 97.257,123.737 97.223,123.413 97.223 C 123.090 97.223,122.957 97.257,123.119 97.300 M182.472 97.308 C 183.096 97.341,184.117 97.341,184.741 97.308 C 185.366 97.276,184.855 97.250,183.607 97.250 C 182.358 97.250,181.847 97.276,182.472 97.308 M154.984 97.953 C 155.856 99.217,158.636 101.439,159.815 101.814 C 160.000 101.873,159.755 101.695,159.271 101.418 C 157.850 100.606,156.786 99.761,155.671 98.560 C 155.097 97.942,154.787 97.669,154.984 97.953 M365.532 101.471 C 364.327 102.102,364.256 102.238,365.392 101.740 C 366.043 101.455,366.925 100.889,366.709 100.896 C 366.662 100.898,366.133 101.157,365.532 101.471 M161.871 102.557 C 163.048 103.066,165.924 103.079,263.472 103.032 C 356.422 102.987,361.959 102.968,362.673 102.693 C 363.090 102.532,363.232 102.437,362.991 102.480 C 362.749 102.523,362.030 102.634,361.393 102.726 C 359.808 102.956,165.313 102.957,163.682 102.728 C 163.035 102.637,162.278 102.525,162.001 102.479 C 161.562 102.405,161.545 102.415,161.871 102.557 M7.605 107.272 C 7.605 107.596,7.640 107.728,7.682 107.566 C 7.724 107.404,7.724 107.140,7.682 106.978 C 7.640 106.816,7.605 106.948,7.605 107.272 M7.743 108.305 C 7.733 108.634,8.405 110.861,8.489 110.777 C 8.521 110.745,8.369 110.113,8.150 109.373 C 7.931 108.634,7.748 108.153,7.743 108.305 M391.819 109.423 C 391.620 110.136,391.483 110.746,391.515 110.779 C 391.605 110.872,392.303 108.476,392.239 108.292 C 392.207 108.201,392.018 108.710,391.819 109.423 M390.696 112.157 C 390.439 112.615,390.268 112.989,390.315 112.989 C 390.441 112.989,391.310 111.473,391.230 111.393 C 391.194 111.356,390.953 111.700,390.696 112.157 M9.326 112.474 C 9.467 112.745,9.658 113.015,9.751 113.072 C 9.844 113.130,9.762 112.908,9.568 112.578 C 9.142 111.857,8.968 111.781,9.326 112.474 M10.104 113.595 C 10.419 114.068,11.430 115.157,12.037 115.679 C 12.306 115.910,12.001 115.532,11.359 114.838 C 9.807 113.163,9.834 113.189,10.104 113.595 M388.562 114.950 C 387.963 115.566,387.665 115.925,387.899 115.748 C 388.334 115.419,389.841 113.829,389.718 113.829 C 389.681 113.829,389.160 114.333,388.562 114.950 M12.724 116.197 C 12.932 116.449,13.955 117.093,13.955 116.972 C 13.955 116.933,13.634 116.688,13.241 116.429 C 12.848 116.170,12.615 116.065,12.724 116.197 M386.801 116.445 C 386.488 116.711,386.429 116.810,386.647 116.706 C 386.959 116.556,387.526 116.014,387.368 116.016 C 387.334 116.016,387.079 116.210,386.801 116.445 M14.124 117.130 C 14.124 117.252,15.984 118.078,16.068 117.994 C 16.109 117.953,15.688 117.724,15.133 117.485 C 14.578 117.245,14.124 117.085,14.124 117.130 M384.784 117.547 C 384.229 117.819,383.964 117.992,384.195 117.931 C 384.694 117.801,385.876 117.220,385.876 117.105 C 385.876 117.004,385.970 116.966,384.784 117.547 M19.000 118.700 C 19.435 118.785,87.283 118.854,178.604 118.861 C 265.971 118.868,337.454 118.930,337.455 119.000 C 337.457 119.069,337.726 119.428,338.054 119.798 L 338.650 120.471 338.015 119.588 L 337.381 118.705 178.737 118.704 C 91.482 118.703,19.676 118.668,19.168 118.627 C 18.246 118.551,18.246 118.552,19.000 118.700 M377.343 118.663 L 374.107 118.713 374.148 138.591 L 374.189 158.470 374.233 138.672 L 374.276 118.873 377.260 118.861 C 378.901 118.854,380.584 118.788,381.000 118.714 C 381.644 118.599,381.669 118.582,381.169 118.596 C 380.845 118.606,379.124 118.636,377.343 118.663 M339.893 122.218 C 340.622 123.165,341.293 123.985,341.385 124.042 C 341.476 124.098,340.954 123.369,340.225 122.423 C 339.495 121.476,338.824 120.655,338.733 120.599 C 338.642 120.543,339.164 121.271,339.893 122.218 M341.968 124.884 C 342.274 125.277,342.562 125.599,342.606 125.599 C 342.738 125.599,342.036 124.666,341.709 124.407 C 341.545 124.277,341.661 124.491,341.968 124.884 M343.144 126.404 C 343.352 126.696,343.608 126.988,343.715 127.053 C 343.821 127.119,343.738 126.935,343.531 126.643 C 343.323 126.352,343.067 126.060,342.960 125.994 C 342.854 125.928,342.937 126.113,343.144 126.404 M344.135 127.659 C 344.226 127.774,345.225 129.061,346.355 130.517 C 347.486 131.974,348.448 133.165,348.494 133.165 C 348.540 133.165,348.094 132.541,347.504 131.778 C 346.913 131.015,345.917 129.729,345.290 128.920 C 344.663 128.111,344.109 127.449,344.060 127.449 C 344.010 127.449,344.044 127.543,344.135 127.659 M349.825 134.974 C 350.539 135.922,351.241 136.792,351.384 136.907 C 351.677 137.143,349.850 134.742,349.047 133.838 C 348.760 133.514,349.110 134.025,349.825 134.974 M351.893 137.678 C 352.080 137.940,352.368 138.262,352.532 138.392 C 352.696 138.523,352.580 138.308,352.274 137.915 C 351.649 137.115,351.367 136.939,351.893 137.678 M353.070 139.191 C 353.257 139.454,353.545 139.775,353.709 139.906 C 353.873 140.036,353.757 139.821,353.450 139.428 C 352.826 138.628,352.544 138.452,353.070 139.191 M354.247 140.704 C 354.434 140.967,354.722 141.288,354.886 141.419 C 355.050 141.549,354.934 141.335,354.627 140.942 C 354.003 140.141,353.721 139.965,354.247 140.704 M355.424 142.218 C 355.611 142.480,355.899 142.802,356.063 142.932 C 356.227 143.063,356.111 142.848,355.804 142.455 C 355.180 141.655,354.898 141.478,355.424 142.218 M356.384 143.431 C 357.484 144.877,359.017 146.784,359.080 146.784 C 359.194 146.784,356.589 143.421,356.377 143.294 C 356.264 143.227,356.266 143.276,356.384 143.431 M359.552 147.512 C 359.811 147.852,360.057 148.129,360.099 148.129 C 360.215 148.129,359.488 147.146,359.272 147.013 C 359.167 146.948,359.293 147.173,359.552 147.512 M360.824 149.138 C 361.117 149.508,361.394 149.811,361.441 149.811 C 361.487 149.811,361.285 149.508,360.992 149.138 C 360.699 148.768,360.422 148.466,360.375 148.466 C 360.329 148.466,360.531 148.768,360.824 149.138 M362.001 150.652 C 362.294 151.021,362.571 151.324,362.618 151.324 C 362.664 151.324,362.462 151.021,362.169 150.652 C 361.876 150.282,361.598 149.979,361.552 149.979 C 361.506 149.979,361.708 150.282,362.001 150.652 M363.178 152.165 C 363.471 152.535,363.748 152.837,363.795 152.837 C 363.841 152.837,363.639 152.535,363.346 152.165 C 363.053 151.795,362.775 151.492,362.729 151.492 C 362.683 151.492,362.885 151.795,363.178 152.165 M364.355 153.678 C 364.648 154.048,364.925 154.351,364.972 154.351 C 365.018 154.351,364.816 154.048,364.523 153.678 C 364.230 153.308,363.952 153.005,363.906 153.005 C 363.860 153.005,364.062 153.308,364.355 153.678 M365.344 154.996 C 365.531 155.259,365.819 155.580,365.983 155.711 C 366.147 155.841,366.031 155.626,365.725 155.233 C 365.100 154.433,364.818 154.257,365.344 154.996 M366.940 156.999 C 367.355 157.530,368.010 158.306,368.395 158.722 C 369.046 159.425,369.058 159.431,368.567 158.806 C 367.287 157.177,366.336 156.032,366.263 156.032 C 366.220 156.032,366.525 156.467,366.940 156.999 M369.880 160.025 C 370.201 160.326,370.544 160.572,370.641 160.572 C 370.739 160.572,370.632 160.446,370.403 160.293 C 370.174 160.140,369.832 159.894,369.641 159.747 C 369.451 159.599,369.558 159.725,369.880 160.025 " stroke="none" fill="#7c7c7c" fill-rule="evenodd"></path></g></svg>